<?xml version="1.0" standalone="no"?>
<!DOCTYPE svg PUBLIC "-//W3C//DTD SVG 1.1//EN" "http://www.w3.org/Graphics/SVG/1.1/DTD/svg11.dtd" >
<svg xmlns="http://www.w3.org/2000/svg">
<metadata>Generated by IcoMoon</metadata>
<defs>
<font id="icomoon" horiz-adv-x="1024">
<font-face units-per-em="1024" ascent="960" descent="-64" />
<missing-glyph horiz-adv-x="1024" />
<glyph unicode="&#x20;" horiz-adv-x="512" d="" />
<glyph unicode="&#xe900;" glyph-name="d_rotation" d="M321.28 43.52c-139.52 65.705-239.36 201.385-254.72 361.815h-64c21.76-262.83 241.494-469.335 509.865-469.335l28.16 1.28-162.558 162.56-56.746-56.32zM359.254 321.705c-8.107 0-15.787 1.28-22.187 3.415-6.826 2.56-12.373 5.545-17.066 10.24-4.694 4.265-8.534 9.385-11.094 15.785-2.56 5.975-3.84 12.8-3.84 20.055h-55.466c0-15.36 2.986-29.015 8.96-40.535s14.080-21.33 23.894-29.44c10.24-7.68 21.76-13.65 34.986-17.49 12.8-4.27 26.454-6.4 40.96-6.4 15.786 0 30.72 2.13 43.946 6.4 13.654 4.265 25.6 10.665 35.414 18.77 9.814 8.11 17.92 18.35 23.466 30.72 5.547 12.375 8.534 26.030 8.534 41.39 0 8.105-0.854 16.21-2.986 23.89s-5.12 14.935-9.814 21.76c-4.266 6.83-10.24 12.8-17.066 18.35-7.254 5.545-15.787 9.811-26.027 13.225 8.534 3.84 15.787 8.534 22.187 14.080s11.52 11.52 15.786 17.92c4.266 6.4 7.254 12.8 9.386 19.626s2.987 13.654 2.987 20.48c0 15.36-2.56 29.014-7.68 40.96s-12.374 21.76-21.76 29.44c-8.534 8.107-20.054 14.080-32.854 18.347-13.226 3.84-27.734 5.973-43.52 5.973-15.36 0-29.44-2.133-42.666-6.826-12.8-4.694-24.32-11.094-33.707-19.2-8.96-8.106-16.213-17.494-21.76-28.586-5.12-11.094-7.68-23.040-7.68-36.267h55.467c0 7.254 1.28 13.654 3.84 19.2s5.973 10.667 10.666 14.507c4.694 3.84 9.814 7.253 16.214 9.386s12.8 3.414 20.48 3.414c17.066 0 29.866-4.267 37.973-13.227 8.107-8.533 12.374-20.906 12.374-36.693 0-7.68-1.28-14.507-3.414-20.907s-5.973-11.52-10.666-15.786c-4.694-4.266-10.666-7.68-17.494-10.24s-15.36-3.84-24.746-3.84h-32.854v-43.945h32.854c9.386 0 17.92-0.855 25.6-2.99 7.68-2.13 14.080-5.545 19.2-9.81 5.12-4.695 9.386-10.24 12.374-17.070 2.986-6.825 4.266-14.93 4.266-24.32 0-17.49-5.12-30.72-14.934-39.68-9.813-9.81-23.466-14.080-40.533-14.080zM724.055 574.294c-13.655 14.080-29.87 25.173-48.64 32.853-18.775 7.68-39.68 11.52-62.72 11.52h-100.695v-341.331h98.135c23.465 0 45.225 3.84 64.425 11.52s35.84 18.345 49.495 32.425c13.65 14.080 24.32 31.145 31.57 50.775 7.255 20.050 11.095 42.24 11.095 66.985v17.066c0 24.747-3.84 46.934-11.095 66.987-7.25 20.053-17.92 37.12-31.57 51.2zM707.415 439.465c0-17.92-2.135-33.705-5.975-48.21-4.265-14.080-10.24-26.455-18.345-36.27-8.11-9.81-18.35-17.49-30.295-22.61-12.375-5.12-26.455-7.68-42.24-7.68h-38.825v246.185h41.385c30.72 0 54.185-9.814 69.975-29.44 16.21-19.626 24.32-47.786 24.32-84.906v-17.069zM512.425 960l-28.158-1.28 162.558-162.56 56.75 56.746c139.52-66.133 239.36-201.386 254.29-361.813h64c-21.33 262.4-241.065 468.906-509.44 468.906z" />
<glyph unicode="&#xe901;" glyph-name="accessibility" d="M512 874.666c46.935 0 85.335-38.4 85.335-85.333s-38.4-85.334-85.335-85.334c-46.934 0-85.334 38.4-85.334 85.334s38.4 85.333 85.334 85.333zM896 576h-256v-554.665h-85.335v256h-85.331v-256h-85.334v554.665h-256v85.334h768v-85.334z" />
<glyph unicode="&#xe902;" glyph-name="accessibility_new" d="M874.665 704c-111.36-29.866-241.92-42.666-362.665-42.666s-251.306 12.8-362.666 42.666l-21.334-85.334c79.36-21.333 170.666-35.413 256-42.666v-554.665h85.334v256h85.331v-256h85.335v554.665c85.335 7.254 176.64 21.334 256 42.666l-21.335 85.334zM512 704c46.935 0 85.335 38.4 85.335 85.334s-38.4 85.333-85.335 85.333c-46.934 0-85.334-38.4-85.334-85.333s38.4-85.334 85.334-85.334z" />
<glyph unicode="&#xe903;" glyph-name="ft_apart" d="M256 704.002c46.934 0 85.334 38.4 85.334 85.334s-38.4 85.333-85.334 85.333c-46.934 0-85.334-38.4-85.334-85.333s38.4-85.334 85.334-85.334zM426.666 557.656c0 34.56-20.48 65.28-52.053 78.933-36.267 15.787-76.374 24.747-118.614 24.747s-82.346-8.96-118.614-24.747c-31.573-13.653-52.053-44.373-52.053-78.933v-24.32h341.333v24.32zM768 704.002c46.935 0 85.335 38.4 85.335 85.334s-38.4 85.333-85.335 85.333c-46.935 0-85.335-38.4-85.335-85.333s38.4-85.334 85.335-85.334zM938.665 557.656c0 34.56-20.48 65.28-52.050 78.933-36.27 15.787-76.375 24.747-118.615 24.747s-82.345-8.96-118.615-24.747c-31.57-13.653-52.050-44.373-52.050-78.933v-24.32h341.33v24.32zM810.665 234.67v85.76l-597.331-0.43v-85.33l-128 128 128 127.998v-85.758l597.331 0.425v85.334l128-127.998-128-128zM426.666 149.335v42.665h-106.666c-11.946 0-21.334-9.385-21.334-21.33v-128c0-11.95 9.387-21.335 21.334-21.335h85.334c11.946 0 21.333 9.385 21.333 21.335v64c0 11.945-9.386 21.33-21.333 21.33h-64v21.335h85.333zM384 85.335v-21.335h-42.666v21.335h42.666zM746.665 149.335h-42.665v-128h-42.665v128h-42.67v42.665h128v-42.665zM533.335 149.335v-21.335h42.665v-42.665h-42.665v-64h-42.669v170.665h106.669v-42.665h-64z" />
<glyph unicode="&#xe904;" glyph-name="360" d="M512 661.335c-235.519 0-426.665-95.574-426.665-213.334 0-95.571 125.44-176.211 298.666-203.521v-137.81l170.669 170.665-170.669 170.666v-116.481c-134.4 23.895-213.334 81.070-213.334 116.481 0 45.226 129.707 128 341.332 128 211.63 0 341.335-82.774 341.335-128 0-31.146-62.295-80.641-170.665-107.946v-87.465c150.61 32.85 256 107.945 256 195.411 0 117.76-191.15 213.334-426.67 213.334z" />
<glyph unicode="&#xe905;" glyph-name="ac_unit" d="M938.665 490.665h-177.92l138.24 138.24-60.16 60.587-198.825-198.827h-85.335v85.334l198.825 198.826-60.585 60.16-138.24-138.24v177.92h-85.334v-177.92l-138.24 138.24-60.587-60.16 198.827-198.826v-85.334h-85.334l-198.826 198.827-60.16-60.587 138.24-138.24h-177.92v-85.336h177.92l-138.24-138.24 60.16-60.585 198.826 198.825h85.334v-85.33l-198.827-198.83 60.587-60.16 138.24 138.24v-177.92h85.334v177.92l138.24-138.24 60.585 60.16-198.825 198.83v85.33h85.335l198.825-198.825 60.16 60.585-138.24 138.24h177.92v85.336z" />
<glyph unicode="&#xe906;" glyph-name="account_tree" d="M938.665 490.666v341.334h-298.665v-128h-256.002v128h-298.666v-341.334h298.666v128h85.334v-426.666h170.669v-128h298.665v341.335h-298.665v-128h-85.335v341.331h85.335v-128h298.665zM298.664 576h-128v170.666h128v-170.666zM725.33 320h128v-170.665h-128v170.665zM725.33 746.666h128v-170.666h-128v170.666z" />
<glyph unicode="&#xe907;" glyph-name="adb" d="M213.331 277.335c0-165.12 133.546-298.67 298.666-298.67 165.122 0 298.667 133.55 298.667 298.67v170.665h-597.334v-170.665zM687.785 773.547l89.6 89.6-34.985 35.413-98.135-98.56c-40.105 20.054-84.48 32-132.267 32s-92.16-11.946-131.84-32l-98.56 98.56-34.986-35.413 89.6-89.6c-74.24-54.187-122.88-141.227-122.88-240.214v-42.666h597.334v42.666c0 98.986-48.64 186.026-122.88 240.214zM383.998 576c-23.466 0-42.666 19.2-42.666 42.667s19.2 42.666 42.666 42.666c23.466 0 42.666-19.2 42.666-42.666s-19.2-42.667-42.666-42.667zM640 576c-23.47 0-42.67 19.2-42.67 42.667s19.2 42.666 42.67 42.666c23.465 0 42.665-19.2 42.665-42.666s-19.2-42.667-42.665-42.667z" />
<glyph unicode="&#xe908;" glyph-name="add_a_photo" d="M896 704h-135.255l-78.080 85.334h-255.998v-85.334h218.454l78.080-85.334h172.8v-512.002h-682.666v384.002h-85.334v-384.002c0-46.93 38.4-85.33 85.334-85.33h682.666c46.935 0 85.335 38.4 85.335 85.33v512.002c0 46.934-38.4 85.334-85.335 85.334zM341.334 362.665c0-117.76 95.573-213.33 213.331-213.33 117.76 0 213.335 95.57 213.335 213.33 0 117.762-95.575 213.335-213.335 213.335-117.758 0-213.331-95.574-213.331-213.335zM554.665 490.666c70.4 0 128-57.602 128-128.002s-57.6-128-128-128c-70.398 0-127.998 57.6-127.998 128s57.6 128.002 127.998 128.002zM213.334 704h128v85.334h-128v128h-85.334v-128h-128v-85.334h128v-128h85.334v128z" />
<glyph unicode="&#xe909;" glyph-name="add_alert" d="M427.094 63.575c0-46.935 37.973-84.91 84.906-84.91 46.935 0 84.905 37.975 84.905 84.91h-169.811zM512 704c117.76 0 213.335-95.574 213.335-213.334v-298.666h-426.669v298.666c0 117.76 95.574 213.334 213.334 213.334zM512 896c-35.414 0-64-28.586-64-64v-49.92c-133.974-29.014-234.666-148.48-234.666-291.414v-256.002l-85.334-85.33v-42.67h768v42.67l-85.335 85.33v256.002c0 142.934-100.69 262.4-234.665 291.414v49.92c0 35.414-28.585 64-64 64zM554.665 618.666h-85.331v-128h-128v-85.331h128v-128h85.331v128h128v85.331h-128v128z" />
<glyph unicode="&#xe90a;" glyph-name="add_business" d="M725.33 789.335h-639.998v-85.334h639.998v85.334zM640 234.67h85.33v128h42.67v85.331l-42.67 213.334h-639.997l-42.667-213.334v-85.331h42.667v-256h384v256h170.668v-128zM383.999 192h-213.334v170.67h213.334v-170.67zM129.705 448.001l25.6 128h500.055l25.6-128h-551.255zM981.335 192h-128v128h-85.335v-128h-128v-85.335h128v-128h85.335v128h128v85.335z" />
<glyph unicode="&#xe90b;" glyph-name="add_location" d="M554.665 703.999v-128h128v-85.334h-128v-128.001h-85.332v128.001h-128v85.334h128v128h85.332zM768 524.799c0 154.88-113.070 264.534-256.001 264.534-142.934 0-256-109.654-256-264.534 0-99.839 83.2-232.109 256-389.974 172.801 157.865 256.001 290.135 256.001 389.974zM511.999 874.665c179.201 0 341.331-137.386 341.331-349.866 0-141.654-113.92-309.334-341.331-503.469-227.414 194.135-341.334 361.815-341.334 503.469 0 212.48 162.134 349.866 341.334 349.866z" />
<glyph unicode="&#xe90c;" glyph-name="add_location_alt" d="M853.33 917.334v-128h128v-85.334h-128v-128h-85.33v128h-128v85.334h128v128h85.33zM511.999 405.335c-46.934 0-85.334 38.4-85.334 85.332 0 46.934 38.4 85.334 85.334 85.334 46.931 0 85.331-38.4 85.331-85.334 0-46.932-38.4-85.332-85.331-85.332zM554.665 829.441v-86.186c-14.111 2.23-28.375 3.371-42.666 3.413-142.934 0-256-109.653-256-264.533 0-99.839 83.2-232.104 256-389.975 172.801 157.87 256.001 289.71 256.001 389.975v8.533h85.33v-8.533c0-141.655-113.92-309.335-341.331-503.464-227.414 194.13-341.334 361.81-341.334 503.464 0 212.48 162.134 349.866 341.334 349.866 14.506 0 28.586-0.854 42.666-2.56z" />
<glyph unicode="&#xe90d;" glyph-name="add_photo_alternate" d="M768 106.665h-597.332v597.335h384.003v85.334h-384.003c-46.933 0-85.333-38.4-85.333-85.334v-597.335c0-46.93 38.4-85.33 85.333-85.33h597.332c46.935 0 85.335 38.4 85.335 85.33v384.002h-85.335v-384.002zM435.628 241.92l-83.626 100.695-117.334-150.615h469.332l-151.040 200.96-117.332-151.040zM853.335 789.334v128h-85.335v-128h-128c0.43-0.427 0-85.334 0-85.334h128v-127.574c0.43-0.426 85.335 0 85.335 0v127.574h128v85.334h-128z" />
<glyph unicode="&#xe90e;" glyph-name="add_road" d="M853.335 192v128h-85.335v-128h-128v-85.335h128v-128h85.335v128h128v85.335h-128zM853.335 789.335h-85.335v-383.999h85.335v383.999zM255.999 789.335h-85.334v-682.664h85.334v682.664zM554.665 789.335h-85.334v-170.667h85.334v170.667zM554.665 533.335h-85.334v-170.664h85.334v170.664zM554.665 277.335h-85.334v-170.665h85.334v170.665z" />
<glyph unicode="&#xe90f;" glyph-name="add_to_photos" d="M170.668 704h-85.333v-597.335c0-46.93 38.4-85.33 85.333-85.33h597.332v85.33h-597.332v597.335zM853.335 874.666h-512.001c-46.934 0-85.334-38.4-85.334-85.333v-511.998c0-46.935 38.4-85.335 85.334-85.335h512.001c46.935 0 85.335 38.4 85.335 85.335v511.998c0 46.933-38.4 85.333-85.335 85.333zM853.335 277.335h-512.001v511.998h512.001v-511.998zM554.67 320h85.33v170.666h170.67v85.334h-170.67v170.666h-85.33v-170.666h-170.669v-85.334h170.669v-170.666z" />
<glyph unicode="&#xe910;" glyph-name="adjust" d="M512 874.666c-235.092 0-426.665-191.573-426.665-426.666 0-235.095 191.573-426.665 426.665-426.665 235.095 0 426.67 191.57 426.67 426.665 0 235.094-191.575 426.666-426.67 426.666zM512 106.665c-188.159 0-341.332 153.175-341.332 341.335s153.174 341.334 341.332 341.334c188.16 0 341.335-153.174 341.335-341.334s-153.175-341.335-341.335-341.335zM640 448c0-70.825-57.17-128-128-128-70.825 0-127.999 57.175-127.999 128s57.174 128 127.999 128c70.83 0 128-57.174 128-128z" />
<glyph unicode="&#xe911;" glyph-name="advanced" d="M810.665 832h-597.331c-46.934 0-85.334-38.4-85.334-85.334v-597.331c0-46.935 38.4-85.335 85.334-85.335h597.331c46.935 0 85.335 38.4 85.335 85.335v597.331c0 46.934-38.4 85.334-85.335 85.334zM810.665 149.335h-597.331v597.331h597.331v-597.331zM298.666 362.665h85.334v-128h-85.334v128zM469.334 490.666h85.331v-256.002h-85.331v256.002zM640 661.334h85.335v-426.669h-85.335v426.669z" />
<glyph unicode="&#xe912;" glyph-name="agriculture" d="M170.666 576.001h213.334c0 46.934-38.4 85.334-85.334 85.334h-128c-23.466 0-42.666-19.2-42.666-42.667s19.2-42.666 42.666-42.666zM938.665 360.11v258.558c0 46.933-38.4 85.333-85.335 85.333h-268.37l-45.23 45.227 60.16 60.16-30.29 30.293-150.615-150.613 30.294-30.294 60.16 60.16 45.226-45.226v-97.707c0-46.933-38.4-85.333-85.332-85.333h-87.040c-9.387 6.826-19.2 12.8-29.44 18.346l-17.067-37.974-19.626 8.96 17.066 38.4c-23.466 9.387-49.92 14.934-77.226 14.934-22.614 0-44.374-4.694-64.854-11.094l14.507-38.826-20.054-7.68-14.934 39.68c-45.226-19.626-81.493-54.614-103.68-98.559l37.974-17.065-8.96-19.63-38.4 17.070c-9.387-23.47-14.933-49.92-14.933-77.23 0-22.61 4.693-44.37 11.093-64.85l38.826 14.505 7.68-20.055-39.68-14.93c19.627-45.23 54.614-81.495 98.56-103.68l17.067 37.97 19.626-8.96-17.066-38.4c23.466-9.385 49.92-14.93 77.226-14.93 22.614 0 44.374 4.69 64.854 11.090l-14.507 38.83 20.054 7.68 14.934-39.68c45.226 19.625 81.493 54.61 103.68 98.56l-37.974 17.065 8.96 19.625 38.4-17.065c4.266 11.095 7.68 23.040 10.24 34.985h220.161c-0.855-7.25-2.135-14.505-2.135-21.76 0-82.345 66.985-149.33 149.335-149.33 82.345 0 149.33 66.985 149.33 149.33 0 40.535-16.21 77.23-42.665 104.11zM255.999 192c-70.826 0-128 57.175-128 128 0 70.83 57.174 128.001 128 128.001s128-57.171 128-128.001c0-70.825-57.174-128-128-128zM463.785 362.67c-1.706 7.68-3.413 14.93-5.546 22.185l-38.826-14.505-7.68 20.050 39.68 14.935h17.92c94.292 0 170.668 76.373 170.668 170.666v42.667h213.33v-215.468c-6.825 0.855-14.080 2.135-21.33 2.135-40.535 0-77.23-16.215-104.11-42.665h-264.104zM832 192c-35.415 0-64 28.59-64 64 0 35.415 28.585 64 64 64 35.41 0 64-28.585 64-64 0-35.41-28.59-64-64-64z" />
<glyph unicode="&#xe913;" glyph-name="airline_seat_flat" d="M213.331 405.335c33.28 0 66.133 12.8 91.306 38.4 49.494 50.772 48.64 131.412-1.706 180.905-25.174 24.32-57.6 36.694-89.6 36.694-33.28 0-66.134-12.8-91.307-38.4-49.493-50.774-48.64-131.414 1.707-180.909 25.173-24.32 57.6-36.69 89.6-36.69zM183.038 563.2c8.106 8.107 18.774 12.801 30.294 12.801 11.093 0 21.76-4.267 29.866-11.947 17.066-16.64 17.066-43.093 0.854-60.16-8.534-8.533-19.2-13.226-30.72-13.226-11.094 0-21.76 4.266-29.867 11.946-17.066 17.066-17.066 43.52-0.426 60.586zM768 661.334h-384.002v-255.998h554.667v85.332c0 94.294-76.375 170.666-170.665 170.666zM469.331 490.667v85.334h298.669c46.93 0 85.33-38.4 85.33-85.334h-383.998zM85.331 277.335h256v-85.335h341.334v85.335h256v85.33h-853.334v-85.33z" />
<glyph unicode="&#xe914;" glyph-name="airline_seat_flat_angled" d="M256 682.666c13.226 0 29.866-6.4 38.4-23.893 10.24-21.334 0.854-46.934-20.054-57.174-5.973-2.56-11.946-4.266-18.346-4.266-12.8 0-29.866 6.4-37.974 23.893-7.253 14.507-4.266 26.88-2.133 33.28 2.133 5.974 7.68 17.067 21.76 23.894 5.973 2.56 11.946 4.266 18.346 4.266zM532.055 592.64l285.44-102.826c22.185-8.107 39.68-23.894 49.065-44.798 9.385-20.48 10.665-43.95 2.56-65.28l-0.425-0.855-366.509 132.694 29.869 81.066zM426.666 311.895l170.669-61.44v-15.79h-170.669v77.23zM256 768c-18.774 0-37.546-4.266-55.466-12.8-63.574-30.294-90.454-106.666-59.734-170.666 21.76-45.654 67.414-72.534 115.2-72.534 18.774 0 37.546 4.266 55.466 12.8 63.574 30.72 90.454 107.094 60.16 170.666-22.186 45.654-67.84 72.534-115.626 72.534zM481.28 701.866l-88.746-241.493 527.362-190.718 29.44 80.64c32.85 89.17-13.23 187.305-102.83 219.731l-365.225 131.84zM93.44 522.666l-29.44-80.642 277.334-99.84v-192.85h341.331v69.545l192.855-69.545 29.44 80.64-811.52 292.691z" />
<glyph unicode="&#xe915;" glyph-name="airline_seat_individual_suite" d="M298.669 362.665c70.827 0 128 57.175 128 128.002s-57.173 128-128 128c-70.826 0-128-57.174-128-128s57.174-128.002 128-128.002zM298.669 533.334c23.467 0 42.667-19.2 42.667-42.666s-19.2-42.666-42.667-42.666c-23.466 0-42.666 19.2-42.666 42.666s19.2 42.666 42.666 42.666zM810.67 661.334h-341.335v-341.334h-341.334v341.334h-85.333v-426.669h938.666v256.002c0 94.294-76.375 170.666-170.665 170.666zM896 320h-341.33v256.001h256c46.93 0 85.33-38.4 85.33-85.334v-170.667z" />
<glyph unicode="&#xe916;" glyph-name="airline_seat_legroom_extra" d="M170.664 448v384h-85.333v-384c0-117.76 95.573-213.335 213.333-213.335h256.001v85.335h-256.001c-70.826 0-128 57.175-128 128zM974.080 224.425c-16.215 30.72-55.040 41.39-86.615 26.88l-46.505-21.33-145.495 297.811c-14.505 29.014-43.945 48.214-76.375 48.214h-149.758v256h-256v-341.334c0-70.826 57.173-128.002 128-128.002h298.669l145.49-298.665 158.72 72.535c32.855 15.36 46.935 55.465 29.87 87.89z" />
<glyph unicode="&#xe917;" glyph-name="airline_seat_legroom_normal" d="M213.334 448v384h-85.334v-384c0-117.76 95.574-213.335 213.334-213.335h256.002v85.335h-256.002c-70.827 0-128 57.175-128 128zM874.665 192h-64v298.666c0 46.934-38.4 85.334-85.33 85.334h-213.335v256h-256v-341.334c0-70.402 57.6-128.002 128-128.002h298.665v-298.665h192c35.415 0 64 28.585 64 64s-28.585 64-64 64z" />
<glyph unicode="&#xe918;" glyph-name="airline_seat_legroom_reduced" d="M852.055 140.8c7.68-40.96-23.47-76.8-62.72-76.8h-192v128l42.665 170.665h-256c-70.4 0-128 57.6-128 128.002v341.334h256v-256h213.335c46.93 0 85.33-38.4 85.33-85.334l-85.33-298.666h61.44c31.145 0 59.305-20.905 65.28-51.2zM213.334 448v384h-85.334v-384c0-117.76 95.574-213.335 213.334-213.335h170.666v85.335h-170.666c-70.827 0-128 57.175-128 128z" />
<glyph unicode="&#xe919;" glyph-name="airline_seat_recline_extra" d="M228.264 719.359c-38.4 27.307-47.786 80.214-20.906 119.040 26.88 38.4 80.214 47.787 119.040 20.907 38.4-27.307 47.786-80.214 20.906-119.040-27.306-38.4-80.213-47.787-119.040-20.907zM682.665 149.335h-301.654c-63.147 0-116.907 46.080-126.294 108.37l-84.054 403.628h-85.333l84.906-416.428c16.214-104.105 105.814-180.905 211.2-180.905h301.227v85.335zM692.48 320h-208.216l-43.946 174.933c67.414-37.974 139.947-65.708 219.732-52.053v90.879c-69.545-13.226-146.77 11.52-200.105 53.334l-69.973 54.186c-9.814 7.68-20.907 12.8-32.427 16.214-13.653 3.84-28.16 5.12-42.24 2.56h-0.853c-52.48-9.386-87.467-59.306-78.507-111.36l57.6-252.588c11.947-60.585 64.427-104.105 125.867-104.105h292.269l162.985-128 64 64-246.185 192z" />
<glyph unicode="&#xe91a;" glyph-name="airline_seat_recline_normal" d="M323.842 729.173c-33.28 33.28-33.28 87.466 0 120.746s87.466 33.28 120.746 0c33.28-33.28 33.28-87.466 0-120.746-33.706-33.706-87.466-33.706-120.746 0zM256.002 277.335v383.998h-85.334v-383.998c0-117.76 95.574-213.335 213.334-213.335h255.998v85.335h-255.998c-70.826 0-128 57.17-128 128zM853.335 103.68l-216.32 216.32h-146.346v157.013c59.731-49.068 153.602-92.158 234.666-92.158v92.158c-70.825-0.854-154.025 37.12-199.255 87.040l-59.731 66.134c-8.106 8.96-18.346 16.213-29.44 21.333-12.373 5.974-26.453 9.814-40.96 9.814h-1.28c-52.906 0-96-43.094-96-96v-245.333c0-70.825 57.174-128 128-128h216.322l149.33-149.335 61.015 61.015z" />
<glyph unicode="&#xe91b;" glyph-name="airport_shuttle" d="M725.335 746.665h-597.333c-46.934 0-85.333-37.973-85.333-85.333v-384.003h85.333c0-70.825 57.174-128 128-128s128 57.175 128 128h255.998c0-70.825 57.175-128 128-128 70.83 0 128 57.175 128 128h85.335v213.336l-256 256zM640 661.332h42.67l128-128h-170.67v128zM384.002 661.332h170.668v-128h-170.668v128zM128.002 661.332h170.666v-128h-170.666v128zM256.002 224c-29.44 0-53.334 23.89-53.334 53.33s23.894 53.335 53.334 53.335c29.44 0 53.334-23.895 53.334-53.335s-23.894-53.33-53.334-53.33zM768 224c-29.44 0-53.33 23.89-53.33 53.33s23.89 53.335 53.33 53.335c29.44 0 53.335-23.895 53.335-53.335s-23.895-53.33-53.335-53.33zM896 362.665h-33.28c-23.465 26.025-57.17 42.665-94.72 42.665-37.545 0-71.25-16.64-94.72-42.665h-322.558c-23.466 26.025-56.746 42.665-94.72 42.665s-71.254-16.64-94.72-42.665h-33.28v85.335h767.998v-85.335z" />
<glyph unicode="&#xe91c;" glyph-name="all_inclusive" d="M793.6 677.547c-61.44 0-119.465-23.894-160.855-65.28l-299.945-266.242c-27.306-27.305-63.574-42.24-102.4-42.24-79.786 0-144.64 64.43-144.64 144.215 0 79.787 64.854 144.214 144.64 144.214 38.826 0 75.094-14.934 104.106-43.946l48.214-42.667 64.426 57.174-53.76 47.36c-43.52 43.52-101.546 67.414-162.986 67.414-127.146 0-230.4-103.254-230.4-229.547 0-126.295 103.254-229.545 230.4-229.545 61.44 0 119.466 23.89 160.854 65.28l299.946 266.238c27.305 27.306 63.575 42.24 102.4 42.24 79.785 0 144.64-64.426 144.64-144.214 0-79.785-64.855-144.215-144.64-144.215-38.4 0-75.095 14.935-104.105 43.95l-48.64 43.090-64.43-57.17 54.19-47.79c43.52-43.090 101.12-66.985 162.985-66.985 127.145 0 230.4 102.825 230.4 229.547 0 126.72-103.255 229.12-230.4 229.12z" />
<glyph unicode="&#xe91d;" glyph-name="alt_route" d="M417.28 483.839l-60.586-60.589c-29.014 29.443-57.174 67.416-76.374 125.443l82.774 20.906c13.653-37.974 32.853-64 54.186-85.76zM469.334 703.999l-170.667 170.666-170.666-170.666h128.854c0.853-34.56 3.413-65.706 8.106-92.586l82.774 20.906c-2.987 20.48-5.12 44.8-5.547 71.68h127.147zM896 703.999l-170.665 170.666-170.67-170.666h127.575c-4.265-157.014-54.615-202.666-108.375-250.88-21.33-18.774-43.090-39.254-61.865-66.134-14.506 20.905-31.146 37.545-48.214 52.905l-60.16-60.16c39.68-36.265 65.707-65.705 65.707-145.065v-213.335h85.331v213.335c0 86.185 30.295 113.495 76.375 154.88 58.88 52.905 131.415 118.614 136.535 314.454h128.425z" />
<glyph unicode="&#xe91e;" glyph-name="apartment" d="M725.335 490.666v341.334h-426.669v-170.666h-170.666v-597.334h341.334v170.665h85.331v-170.665h341.335v426.666h-170.665zM298.666 149.335h-85.333v85.33h85.333v-85.33zM298.666 320h-85.333v85.335h85.333v-85.335zM298.666 490.666h-85.333v85.334h85.333v-85.334zM469.334 320h-85.334v85.335h85.334v-85.335zM469.334 490.666h-85.334v85.334h85.334v-85.334zM469.334 661.334h-85.334v85.333h85.334v-85.333zM640 320h-85.335v85.335h85.335v-85.335zM640 490.666h-85.335v85.334h85.335v-85.334zM640 661.334h-85.335v85.333h85.335v-85.333zM810.665 149.335h-85.33v85.33h85.33v-85.33zM810.665 320h-85.33v85.335h85.33v-85.335z" />
<glyph unicode="&#xe91f;" glyph-name="app_settings_alt" d="M930.565 416.425l-34.99 26.88c0 3.84 0 5.548 0 9.388l34.135 26.88c6.825 5.12 8.535 14.507 4.265 21.76l-36.265 63.147c-2.985 5.546-8.96 8.533-14.935 8.533-2.13 0-4.265-0.426-6.4-1.28l-40.53-16.213c-3.415 2.133-4.695 2.986-8.11 4.693l-6.4 43.094c-1.28 8.96-8.53 15.36-17.065 15.36h-72.96c-8.535 0-15.785-6.4-17.065-14.506l-5.975-43.094c-1.28-0.854-2.985-1.28-4.265-2.134s-2.56-1.706-3.84-2.56l-40.535 16.214c-2.135 0.854-4.265 1.28-6.4 1.28-5.975 0-11.52-2.986-14.935-8.534l-36.265-63.146c-4.265-7.254-2.56-16.64 4.265-21.76l34.135-26.88c0-3.84 0-5.546 0-9.811l-34.135-26.88c-6.825-5.12-8.53-14.51-4.265-21.76l36.265-63.15c2.99-5.545 8.96-8.53 14.935-8.53 2.135 0 4.265 0.425 6.4 1.28l40.535 15.785c3.41-2.135 5.12-2.985 8.53-4.695l6.4-43.090c1.28-8.535 8.535-14.51 17.070-14.51h72.96c8.53 0 15.785 6.4 17.065 14.51l6.4 43.090c1.28 0.855 2.985 1.28 4.265 2.135s2.56 1.705 3.84 2.56l40.535-16.215c2.135-0.85 4.265-1.28 6.4-1.28 5.975 0 11.52 2.99 14.935 8.535l36.265 63.145c4.265 7.255 2.56 16.64-4.265 21.76zM768.005 384c-35.415 0-64 28.585-64 64 0 35.413 28.585 64 64 64 35.41 0 64-28.587 64-64 0-35.415-28.59-64-64-64zM725.335 192h-426.664v512h426.664v-42.667h85.335v170.667c0 46.933-38.4 85.333-85.335 85.333h-426.664c-46.933 0-85.333-38.4-85.333-85.333v-768c0-46.935 38.4-85.335 85.333-85.335h426.664c46.935 0 85.335 38.4 85.335 85.335v170.665h-85.335v-42.665zM298.671 832h426.664v-42.667h-426.664v42.667zM725.335 64h-426.664v42.665h426.664v-42.665z" />
<glyph unicode="&#xe920;" glyph-name="apple" d="M710.093 426.138c-0.369 62.952 28.15 110.397 85.75 145.38-32.215 46.152-80.952 71.536-145.193 76.428-60.831 4.799-127.38-35.445-151.749-35.445-25.753 0-84.643 33.783-130.979 33.783-95.627-1.477-197.254-76.243-197.254-228.359 0-44.954 8.215-91.382 24.645-139.197 21.968-62.95 101.166-217.19 183.778-214.697 43.198 1.014 73.751 30.643 129.964 30.643 54.551 0 82.798-30.643 130.982-30.643 83.348 1.198 154.977 141.409 175.836 204.544-111.78 52.705-105.779 154.332-105.779 157.563zM613.079 707.666c46.802 55.567 42.552 106.15 41.17 124.334-41.354-2.4-89.165-28.153-116.398-59.813-29.997-33.968-47.627-75.966-43.843-123.318 44.677-3.416 85.473 19.568 119.071 58.798z" />
<glyph unicode="&#xe921;" glyph-name="apps" d="M170.669 618.666h170.667v170.666h-170.667v-170.666zM426.669 106.665h170.666v170.67h-170.666v-170.67zM170.669 106.665h170.667v170.67h-170.667v-170.67zM170.669 362.665h170.667v170.668h-170.667v-170.668zM426.669 362.665h170.666v170.668h-170.666v-170.668zM682.67 789.333v-170.666h170.665v170.666h-170.665zM426.669 618.666h170.666v170.666h-170.666v-170.666zM682.67 362.665h170.665v170.668h-170.665v-170.668zM682.67 106.665h170.665v170.67h-170.665v-170.67z" />
<glyph unicode="&#xe922;" glyph-name="architecture" d="M271.36 158.72l10.666-94.72 69.12 65.705 118.187 324.269c-29.014 7.254-54.614 21.76-75.52 41.814l-122.454-337.068zM630.185 495.788c-20.905-20.054-46.93-34.56-75.52-41.814l118.19-324.269 69.12-65.705 11.090 94.72-122.88 337.068zM640 618.666c0 55.467-35.84 102.4-85.335 120.32v93.014h-85.331v-93.014c-49.494-17.92-85.334-64.853-85.334-120.32 0-70.826 57.174-128 128-128 70.825 0 128 57.174 128 128zM512 576c-23.466 0-42.666 19.2-42.666 42.666s19.2 42.667 42.666 42.667c23.465 0 42.665-19.2 42.665-42.667s-19.2-42.666-42.665-42.666z" />
<glyph unicode="&#xe923;" glyph-name="arrow_back" d="M853.33 490.666h-519.254l238.509 238.506-60.589 60.16-341.334-341.333 341.334-341.335 60.159 60.16-238.079 238.51h519.254v85.331z" />
<glyph unicode="&#xe924;" glyph-name="arrow_back_ios" d="M747.095 794.88l-75.945 75.52-421.975-422.4 422.4-422.4 75.52 75.52-346.88 346.88 346.88 346.88z" />
<glyph unicode="&#xe925;" glyph-name="arrow_downward" d="M853.335 448.001l-60.16 60.159-238.505-238.080v519.254h-85.335v-519.254l-238.080 238.507-60.587-60.586 341.331-341.336 341.335 341.336z" />
<glyph unicode="&#xe926;" glyph-name="arrow_drop_down" d="M298.669 533.334l213.331-213.334 213.335 213.334h-426.666z" />
<glyph unicode="&#xe927;" glyph-name="arrow_drop_down_circle" d="M511.998 789.333c188.162 0 341.332-153.174 341.332-341.333s-153.17-341.335-341.332-341.335c-188.16 0-341.334 153.175-341.334 341.335s153.174 341.333 341.334 341.333zM511.998 874.666c-235.52 0-426.666-191.147-426.666-426.666s191.146-426.665 426.666-426.665c235.522 0 426.667 191.145 426.667 426.665s-191.145 426.666-426.667 426.666zM511.998 320l-170.666 170.666h341.334l-170.667-170.666z" />
<glyph unicode="&#xe928;" glyph-name="arrow_drop_up" d="M298.669 362.665l213.331 213.335 213.335-213.335h-426.666z" />
<glyph unicode="&#xe929;" glyph-name="arrow_forward" d="M512 789.334l-60.158-60.16 238.078-238.506h-519.251v-85.332h519.251l-238.078-238.51 60.158-60.16 341.335 341.336-341.335 341.333z" />
<glyph unicode="&#xe92a;" glyph-name="arrow_forward_ios" d="M276.906 101.12l75.52-75.52 422.398 422.4-422.398 422.4-75.52-75.52 346.878-346.88-346.878-346.88z" />
<glyph unicode="&#xe92b;" glyph-name="arrow_left" d="M597.335 661.334l-213.335-213.334 213.335-213.335v426.669z" />
<glyph unicode="&#xe92c;" glyph-name="arrow_right" d="M426.669 234.665l213.331 213.335-213.331 213.334v-426.669z" />
<glyph unicode="&#xe92d;" glyph-name="arrow_upward" d="M170.669 448l60.16-60.16 238.507 238.080v-519.255h85.335v519.255l238.080-238.505 60.585 60.585-341.335 341.334-341.331-341.334z" />
<glyph unicode="&#xe92e;" glyph-name="assistant" d="M810.665 874.666h-597.331c-46.934 0-85.334-38.4-85.334-85.333v-597.334c0-46.935 38.4-85.335 85.334-85.335h170.666l128-128 128 128h170.665c46.935 0 85.335 38.4 85.335 85.335v597.334c0 46.933-38.4 85.333-85.335 85.333zM810.665 192h-206.080l-92.585-92.585-92.586 92.585h-206.080v597.334h597.331v-597.334zM512 234.665l80.215 175.79 175.785 80.211-175.785 80.214-80.215 175.786-80.214-175.786-175.786-80.214 175.786-80.211 80.214-175.79z" />
<glyph unicode="&#xe92f;" glyph-name="assistant_photo" d="M527.36 704l3.41-16.64 13.655-68.694h223.575v-256.002h-143.36l-3.415 16.64-13.655 68.695h-308.905v256h228.696zM597.33 789.334h-383.998v-725.334h85.333v298.665h238.936l17.065-85.33h298.665v426.665h-238.93l-17.070 85.334z" />
<glyph unicode="&#xe930;" glyph-name="atm" d="M341.331 576v-64h96v-192h64v192h95.998v64h-255.998zM255.998 576h-128c-23.466 0-42.666-19.2-42.666-42.666v-213.334h64v64h85.333v-64h64v213.334c0 23.466-19.2 42.666-42.666 42.666zM234.664 448h-85.333v64h85.333v-64zM896 576h-192c-23.47 0-42.67-19.2-42.67-42.666v-213.334h64v192h42.67v-149.335h64v149.762h42.665v-192.426h64v213.334c0 23.466-19.2 42.666-42.665 42.666z" />
<glyph unicode="&#xe931;" glyph-name="attach_email" d="M128.002 703.999l341.334-213.334 341.335 213.334v-128h85.33v213.334c0 46.933-38.4 85.333-85.33 85.333h-682.668c-46.934 0-84.907-38.4-84.907-85.333l-0.427-512.003c0-46.93 38.4-85.33 85.333-85.33h426.668v85.33h-426.668v426.669zM810.67 789.332l-341.335-213.334-341.334 213.334h682.668zM896 362.665v-170.665c0-46.935-38.4-85.335-85.335-85.335-46.93 0-85.33 38.4-85.33 85.335v192c0 11.945 9.385 21.33 21.33 21.33 11.95 0 21.335-9.385 21.335-21.33v-192h85.335v192c0 58.88-47.79 106.665-106.67 106.665s-106.665-47.785-106.665-106.665v-192c0-94.295 76.375-170.67 170.665-170.67 94.295 0 170.67 76.375 170.67 170.67v170.665h-85.335z" />
<glyph unicode="&#xe932;" glyph-name="attachment" d="M789.335 277.33h-490.669c-94.293 0-170.666 76.375-170.666 170.67 0 94.292 76.374 170.665 170.666 170.665h533.334c58.88 0 106.665-47.786 106.665-106.666s-47.785-106.669-106.665-106.669h-448c-23.466 0-42.666 19.2-42.666 42.67 0 23.465 19.2 42.665 42.666 42.665h405.335v64h-405.335c-58.88 0-106.666-47.786-106.666-106.665s47.786-106.67 106.666-106.67h448c94.295 0 170.665 76.375 170.665 170.669s-76.37 170.666-170.665 170.666h-533.334c-129.706 0-234.666-104.96-234.666-234.665 0-129.71 104.96-234.67 234.666-234.67h490.669v64z" />
<glyph unicode="&#xe933;" glyph-name="audiotrack" d="M512 832v-450.135c-25.174 14.51-54.186 23.47-85.334 23.47-94.293 0-170.666-76.375-170.666-170.67 0-94.29 76.374-170.665 170.666-170.665s170.669 76.375 170.669 170.665v426.669h170.665v170.666h-256zM426.666 149.335c-46.933 0-85.333 38.4-85.333 85.33 0 46.935 38.4 85.335 85.333 85.335s85.334-38.4 85.334-85.335c0-46.93-38.4-85.33-85.334-85.33z" />
<glyph unicode="&#xe934;" glyph-name="auto_delete" d="M640 874.666h-149.331l-42.666 42.667h-213.334l-42.666-42.667h-149.333v-85.333h597.331v85.333zM682.67 575.999c-29.865 0-58.455-4.266-85.335-12.374v183.040h-511.997v-512.001c0-46.935 38.4-85.335 85.333-85.335h242.347c47.786-100.69 150.612-170.665 269.652-170.665 165.12 0 298.665 133.545 298.665 298.665s-133.545 298.669-298.665 298.669zM384.004 277.33c0-14.505 1.28-28.585 3.414-42.665h-216.747v426.668h341.335v-139.094c-77.228-54.186-128.001-143.359-128.001-244.909zM682.67 64c-117.76 0-213.332 95.57-213.332 213.33s95.572 213.336 213.332 213.336c117.76 0 213.335-95.576 213.335-213.336s-95.575-213.33-213.335-213.33zM704 448h-64v-213.335l153.6-89.6 34.135 51.2-123.735 72.535v179.2z" />
<glyph unicode="&#xe935;" glyph-name="baby_changing_station" d="M597.335 618.668v-85.333h-128.002l-114.774 50.346-55.894-167.681v-394.665h-170.666v426.666l67.414 197.546c16.213 47.787 69.973 71.68 116.053 50.774l177.067-78.080 108.802 0.426zM341.334 917.334c-46.934 0-85.334-38.4-85.334-85.333s38.4-85.334 85.334-85.334c46.933 0 85.333 38.4 85.333 85.334s-38.4 85.333-85.333 85.333zM384 149.335h512v85.335h-512v-85.335zM832 277.335c35.415 0 64 28.585 64 64s-28.585 64-64 64c-35.415 0-64-28.585-64-64s28.585-64 64-64zM554.665 448.001c0 23.466-19.2 42.666-42.665 42.666h-128v-85.332h85.334v-42.665c0-46.935 38.4-85.335 85.331-85.335h85.335c46.935 0 85.335 38.4 85.335 85.335v127.997h-85.335v-85.332h-85.335v42.666z" />
<glyph unicode="&#xe936;" glyph-name="backpack" d="M725.335 783.359v91.306h-128v-85.333h-170.666v85.333h-128v-91.306c-73.386-19.2-128-85.334-128-164.694v-512.001c0-46.935 38.4-85.335 85.334-85.335h511.998c46.935 0 85.335 38.4 85.335 85.335v512.001c0 79.36-54.615 145.494-128 164.694zM768 106.665h-511.998v512.001c0 46.934 38.4 85.334 85.334 85.334h341.335c46.93 0 85.33-38.4 85.33-85.334v-512.001zM704 448v-170.67h-85.33v85.335h-298.668v85.335h383.998z" />
<glyph unicode="&#xe937;" glyph-name="bathtub" d="M298.664 575.999c47.129 0 85.334 38.205 85.334 85.334s-38.205 85.333-85.334 85.333c-47.128 0-85.333-38.205-85.333-85.333s38.205-85.334 85.333-85.334zM853.33 405.33v348.589c0 66.56-54.185 120.746-120.745 120.746-32 0-62.72-12.8-85.335-35.413l-53.33-53.334c-6.83 2.134-14.080 3.414-21.76 3.414-17.070 0-32.855-5.12-46.080-13.654l117.76-117.76c8.53 13.226 13.65 29.014 13.65 46.080 0 7.68-1.28 14.506-2.985 21.76l53.335 53.334c6.4 6.4 15.36 10.24 24.745 10.24 19.625 0 35.415-15.787 35.415-35.414v-348.589h-292.269c-12.8 8.96-24.32 19.2-34.987 30.72l-59.733 66.136c-8.107 8.96-18.347 16.214-29.44 21.334-13.227 6.4-27.734 9.814-42.667 9.814-52.906-0.427-95.573-43.094-95.573-96.003v-32h-128v-256c0-46.93 38.4-85.33 85.333-85.33 0-23.47 19.2-42.67 42.667-42.67h597.334c23.465 0 42.665 19.2 42.665 42.67 46.935 0 85.335 38.4 85.335 85.33v256h-85.335zM853.33 149.33h-682.665v170.67h682.665v-170.67z" />
<glyph unicode="&#xe938;" glyph-name="battery_alert" horiz-adv-x="1229" d="M802.304 857.6h-85.504v102.4h-204.8v-102.4h-85.504c-37.376 0-68.096-30.72-68.096-68.096v-784.896c0-37.888 30.72-68.608 68.096-68.608h375.296c37.888 0 68.608 30.72 68.608 68.096v785.408c0 37.376-30.72 68.096-68.096 68.096zM665.6 140.8h-102.4v102.4h102.4v-102.4zM665.6 345.6h-102.4v256h102.4v-256z" />
<glyph unicode="&#xe939;" glyph-name="beach_access" d="M896 125.015l-60.887-60.928-274.857 274.857 61.010 60.928 274.734-274.857zM559.785 832c-110.079 0-220.159-41.814-304.639-125.866l-0.426-0.427c-168.534-168.533-168.534-442.026 0-610.562l610.131 610.562c-84.050 84.054-194.56 126.294-305.065 126.294zM261.972 223.145c-31.573 52.91-48.64 113.495-48.64 177.070 0 39.68 6.827 77.651 19.627 113.918 8.106-81.494 37.973-161.709 88.32-232.109l-59.307-58.88zM383.145 344.32c-57.6 87.465-79.36 192-58.88 291.414 24.746 5.12 49.494 7.68 74.666 7.68 76.8 0 151.468-23.467 216.748-66.56l-232.535-232.534zM445.865 727.040c36.266 12.8 74.239 19.626 113.919 19.626 63.575 0 124.16-17.066 177.065-48.64l-59.305-59.306c-70.4 50.346-150.185 80.214-231.679 88.32z" />
<glyph unicode="&#xe93a;" glyph-name="bedtime" d="M395.518 768.426c-69.546-321.706 160.002-529.491 326.827-588.802-59.305-46.505-133.12-72.96-210.347-72.96-188.16 0-341.334 153.175-341.334 341.335 0 147.2 93.867 273.066 224.854 320.426zM511.571 874.24c-238.507 0-426.24-193.28-426.24-426.24 0-235.52 191.146-426.665 426.666-426.665 158.292 0 295.682 86.185 369.492 214.185-320.425 10.665-515.838 359.68-354.985 638.72-5.12 0-9.815 0-14.934 0z" />
<glyph unicode="&#xe93b;" glyph-name="beenhere" d="M810.665 917.334h-597.331c-46.934 0-84.907-38.4-84.907-85.333l-0.426-551.681c0-29.44 14.934-55.465 37.546-70.825l346.454-230.825 346.025 230.825c22.615 15.36 37.55 41.385 37.55 70.825l0.425 551.681c0 46.934-38.4 85.333-85.335 85.333zM512 81.070l-298.666 198.825v552.106h597.331v-551.681l-298.665-199.25zM426.24 397.655l-110.080 110.506-60.16-60.16 170.666-170.666 341.334 341.332-60.585 60.587-281.175-281.599z" />
<glyph unicode="&#xe93c;" glyph-name="beginner" d="M810.665 832h-597.331c-46.934 0-85.334-38.4-85.334-85.334v-597.331c0-46.935 38.4-85.335 85.334-85.335h597.331c46.935 0 85.335 38.4 85.335 85.335v597.331c0 46.934-38.4 85.334-85.335 85.334zM810.665 149.335h-597.331v597.331h597.331v-597.331zM298.666 362.665h85.334v-128h-85.334v128z" />
<glyph unicode="&#xe93d;" glyph-name="bento" d="M853.33 746.665h-682.665c-46.933 0-85.333-38.4-85.333-85.333v-426.668c0-46.935 38.4-85.335 85.333-85.335h682.665c46.935 0 85.335 38.4 85.335 85.335v426.668c0 46.933-38.4 85.333-85.335 85.333zM853.33 490.665h-256v170.667h256v-170.667zM170.664 661.332h341.334v-426.668h-341.334v426.668zM597.33 234.665v170.665h256v-170.665h-256zM405.331 448c0-35.415-28.587-64-64-64s-64 28.585-64 64c0 35.412 28.586 63.999 64 63.999s64-28.586 64-63.999z" />
<glyph unicode="&#xe93e;" glyph-name="bike_scooter" d="M426.666 362.67h31.574l-81.92 360.104c-8.96 38.826-43.52 66.56-83.2 66.56h-165.12v-85.334h165.12l60.586-266.666h-0.426c-92.16-27.735-162.56-105.815-178.774-202.665h-174.506v-85.335h256v42.665c0 94.295 76.374 170.67 170.666 170.67zM810.665 618.666h-34.985l-57.6 157.44c-11.95 33.707-43.95 55.894-79.79 55.894h-168.958v-85.334h168.958l46.935-128h-241.494l19.626-85.333h176.642c-18.35-24.747-32-53.334-38.4-85.334h-119.042l19.626-85.335h99.416c18.77-95.145 98.56-165.545 198.4-170.24 119.465-5.545 224 93.44 224 213.335 0 119.040-93.87 212.906-213.335 212.906zM810.665 277.335c-71.68 0-128 56.32-128 128 0 39.68 17.495 73.811 44.8 97.278l40.96-112.638 80.215 29.010-41.39 113.922c1.28 0 2.56 0.427 3.84 0.427 71.68 0 128-56.32 128-127.998 0-71.68-56.745-128-128.425-128zM426.669 320c-70.826 0-128-57.175-128-128s57.174-128 128-128c70.827 0 128.002 57.175 128.002 128s-57.175 128-128.002 128zM426.669 149.335c-23.466 0-42.666 19.2-42.666 42.665s19.2 42.665 42.666 42.665c23.467 0 42.667-19.2 42.667-42.665s-19.2-42.665-42.667-42.665z" />
<glyph unicode="&#xe93f;" glyph-name="bluetooth_audio" d="M607.575 447.575l98.985-98.99c11.945 30.72 18.775 64.43 18.775 99.415 0 34.986-6.83 67.84-18.35 98.56l-99.41-98.985zM833.28 673.706l-53.76-53.76c26.88-51.626 41.815-109.654 41.815-171.52s-15.36-120.322-41.815-171.522l51.2-51.2c41.385 65.71 65.705 143.36 65.705 226.562-0.425 80.64-23.465 156.586-63.145 221.44zM670.295 631.040l-243.629 243.626h-42.666v-323.84l-195.84 195.84-60.16-60.16 238.506-238.506-238.506-238.505 60.16-60.16 195.84 195.84v-323.84h42.666l243.629 243.625-183.469 183.040 183.469 183.040zM469.334 711.253l80.211-80.213-80.211-80.214v160.426zM549.545 264.96l-80.211-80.215v160.43l80.211-80.215z" />
<glyph unicode="&#xe940;" glyph-name="blur_circular" d="M426.664 576c-23.466 0-42.666-19.2-42.666-42.666s19.2-42.667 42.666-42.667c23.467 0 42.667 19.2 42.667 42.667s-19.2 42.666-42.667 42.666zM426.664 405.335c-23.466 0-42.666-19.2-42.666-42.67 0-23.465 19.2-42.665 42.666-42.665s42.667 19.2 42.667 42.665c0 23.47-19.2 42.67-42.667 42.67zM298.664 554.666c-11.946 0-21.333-9.386-21.333-21.333s9.386-21.334 21.333-21.334c11.947 0 21.334 9.386 21.334 21.334s-9.386 21.333-21.334 21.333zM426.664 256c-11.946 0-21.333-9.385-21.333-21.335 0-11.945 9.386-21.33 21.333-21.33s21.334 9.385 21.334 21.33c0 11.95-9.386 21.335-21.334 21.335zM298.664 384c-11.946 0-21.333-9.385-21.333-21.335 0-11.945 9.386-21.33 21.333-21.33s21.334 9.385 21.334 21.33c0 11.95-9.386 21.335-21.334 21.335zM426.664 640c11.947 0 21.334 9.386 21.334 21.334s-9.386 21.333-21.334 21.333c-11.946 0-21.333-9.386-21.333-21.333s9.386-21.334 21.333-21.334zM597.33 576c-23.465 0-42.665-19.2-42.665-42.666s19.2-42.667 42.665-42.667c23.47 0 42.67 19.2 42.67 42.667s-19.2 42.666-42.67 42.666zM597.33 640c11.95 0 21.335 9.386 21.335 21.334s-9.385 21.333-21.335 21.333c-11.945 0-21.33-9.386-21.33-21.333s9.385-21.334 21.33-21.334zM725.33 384c-11.945 0-21.33-9.385-21.33-21.335 0-11.945 9.385-21.33 21.33-21.33 11.95 0 21.335 9.385 21.335 21.33 0 11.95-9.385 21.335-21.335 21.335zM725.33 554.666c-11.945 0-21.33-9.386-21.33-21.333s9.385-21.334 21.33-21.334c11.95 0 21.335 9.386 21.335 21.334s-9.385 21.333-21.335 21.333zM511.998 874.666c-235.52 0-426.666-191.146-426.666-426.666s191.146-426.665 426.666-426.665c235.522 0 426.667 191.145 426.667 426.665s-191.145 426.666-426.667 426.666zM511.998 106.665c-188.586 0-341.334 152.75-341.334 341.335s152.747 341.334 341.334 341.334 341.332-152.747 341.332-341.334c0-188.585-152.745-341.335-341.332-341.335zM597.33 256c-11.945 0-21.33-9.385-21.33-21.335 0-11.945 9.385-21.33 21.33-21.33 11.95 0 21.335 9.385 21.335 21.33 0 11.95-9.385 21.335-21.335 21.335zM597.33 405.335c-23.465 0-42.665-19.2-42.665-42.67 0-23.465 19.2-42.665 42.665-42.665 23.47 0 42.67 19.2 42.67 42.665 0 23.47-19.2 42.67-42.67 42.67z" />
<glyph unicode="&#xe941;" glyph-name="blur_linear" d="M213.334 213.335c35.413 0 64 28.585 64 64 0 35.41-28.587 64-64 64s-64-28.59-64-64c0-35.415 28.586-64 64-64zM384 405.335c23.466 0 42.666 19.2 42.666 42.665 0 23.466-19.2 42.666-42.666 42.666s-42.666-19.2-42.666-42.666c0-23.465 19.2-42.665 42.666-42.665zM384 576c23.466 0 42.666 19.2 42.666 42.666s-19.2 42.667-42.666 42.667c-23.466 0-42.666-19.2-42.666-42.667s19.2-42.666 42.666-42.666zM128 64h768v85.335h-768v-85.335zM213.334 554.666c35.413 0 64 28.587 64 64s-28.587 64-64 64c-35.414 0-64-28.586-64-64s28.586-64 64-64zM213.334 384c35.413 0 64 28.585 64 64s-28.587 64-64 64-64-28.586-64-64c0-35.415 28.586-64 64-64zM384 234.665c23.466 0 42.666 19.2 42.666 42.67 0 23.465-19.2 42.665-42.666 42.665s-42.666-19.2-42.666-42.665c0-23.47 19.2-42.67 42.666-42.67zM725.335 256c11.945 0 21.33 9.385 21.33 21.335 0 11.945-9.385 21.33-21.33 21.33-11.95 0-21.335-9.385-21.335-21.33 0-11.95 9.385-21.335 21.335-21.335zM128 832v-85.334h768v85.334h-768zM725.335 597.334c11.945 0 21.33 9.386 21.33 21.333s-9.385 21.334-21.33 21.334c-11.95 0-21.335-9.386-21.335-21.334s9.385-21.333 21.335-21.333zM725.335 426.665c11.945 0 21.33 9.39 21.33 21.335s-9.385 21.334-21.33 21.334c-11.95 0-21.335-9.387-21.335-21.334 0-11.945 9.385-21.335 21.335-21.335zM554.665 576c23.47 0 42.67 19.2 42.67 42.666s-19.2 42.667-42.67 42.667c-23.465 0-42.665-19.2-42.665-42.667s19.2-42.666 42.665-42.666zM554.665 405.335c23.47 0 42.67 19.2 42.67 42.665 0 23.466-19.2 42.666-42.67 42.666-23.465 0-42.665-19.2-42.665-42.666 0-23.465 19.2-42.665 42.665-42.665zM554.665 234.665c23.47 0 42.67 19.2 42.67 42.67 0 23.465-19.2 42.665-42.67 42.665-23.465 0-42.665-19.2-42.665-42.665 0-23.47 19.2-42.67 42.665-42.67z" />
<glyph unicode="&#xe942;" glyph-name="blur_off" d="M597.335 661.334c23.562 0 42.665 19.102 42.665 42.666s-19.103 42.666-42.665 42.666c-23.562 0-42.665-19.102-42.665-42.666s19.103-42.666 42.665-42.666zM588.8 470.186l8.53-0.853c35.415 0 64 28.586 64 64s-28.585 64-64 64c-35.41 0-64-28.587-64-64l0.855-8.534c3.84-28.586 26.025-50.774 54.615-54.614zM597.33 810.666c11.95 0 21.335 9.387 21.335 21.334s-9.385 21.334-21.335 21.334c-11.945 0-21.33-9.387-21.33-21.334s9.385-21.334 21.33-21.334zM426.664 810.666c11.947 0 21.334 9.387 21.334 21.334s-9.386 21.334-21.334 21.334c-11.946 0-21.333-9.387-21.333-21.334s9.386-21.334 21.333-21.334zM768 490.666c23.562 0 42.665 19.103 42.665 42.667s-19.103 42.666-42.665 42.666c-23.567 0-42.67-19.103-42.67-42.666s19.103-42.667 42.67-42.667zM768 661.334c23.562 0 42.665 19.102 42.665 42.666s-19.103 42.666-42.665 42.666c-23.567 0-42.67-19.102-42.67-42.666s19.103-42.666 42.67-42.666zM896 512c11.95 0 21.335 9.386 21.335 21.334s-9.385 21.333-21.335 21.333c-11.945 0-21.33-9.386-21.33-21.333s9.385-21.334 21.33-21.334zM426.666 661.334c23.564 0 42.667 19.102 42.667 42.666s-19.103 42.666-42.667 42.666c-23.564 0-42.666-19.102-42.666-42.666s19.103-42.666 42.666-42.666zM768 320c23.562 0 42.665 19.103 42.665 42.665 0 23.567-19.103 42.67-42.665 42.67-23.567 0-42.67-19.103-42.67-42.67 0-23.562 19.103-42.665 42.67-42.665zM255.998 149.335c23.564 0 42.666 19.103 42.666 42.665s-19.102 42.665-42.666 42.665c-23.564 0-42.666-19.103-42.666-42.665s19.102-42.665 42.666-42.665zM597.335 85.335c-11.945 0-21.335-9.39-21.335-21.335s9.39-21.335 21.335-21.335c11.945 0 21.335 9.39 21.335 21.335s-9.39 21.335-21.335 21.335zM896 384c-11.945 0-21.33-9.385-21.33-21.335 0-11.945 9.385-21.33 21.33-21.33 11.95 0 21.335 9.385 21.335 21.33 0 11.95-9.385 21.335-21.335 21.335zM128.002 384c-11.946 0-21.334-9.385-21.334-21.335 0-11.945 9.387-21.33 21.334-21.33s21.334 9.385 21.334 21.33c0 11.95-9.387 21.335-21.334 21.335zM426.666 149.335c23.564 0 42.667 19.103 42.667 42.665s-19.103 42.665-42.667 42.665c-23.564 0-42.666-19.103-42.666-42.665s19.103-42.665 42.666-42.665zM128.002 554.666c-11.946 0-21.334-9.386-21.334-21.333s9.387-21.334 21.334-21.334c11.946 0 21.334 9.386 21.334 21.334s-9.387 21.333-21.334 21.333zM426.669 85.335c-11.946 0-21.333-9.39-21.333-21.335s9.386-21.335 21.333-21.335c11.947 0 21.334 9.39 21.334 21.335s-9.386 21.335-21.334 21.335zM255.998 320c23.564 0 42.666 19.103 42.666 42.665 0 23.567-19.102 42.67-42.666 42.67s-42.666-19.103-42.666-42.67c0-23.562 19.102-42.665 42.666-42.665zM106.669 735.146l161.28-161.28-11.946 2.134c-23.466 0-42.666-19.2-42.666-42.666s19.2-42.667 42.666-42.667c23.466 0 42.666 19.2 42.666 42.667 0 4.266-1.28 8.106-2.56 11.946l119.894-119.895c-30.294-4.69-53.334-31.145-53.334-62.72 0-35.41 28.587-64 64-64 31.574 0 58.027 23.040 62.72 53.335l119.891-119.895c-3.84 1.28-7.68 2.56-11.945 2.56-23.465 0-42.665-19.2-42.665-42.665s19.2-42.665 42.665-42.665c23.465 0 42.665 19.2 42.665 42.665 0 4.265-1.28 8.105-2.56 11.945l161.28-161.28h0.43l60.16 60.16-692.482 692.482-60.16-60.16z" />
<glyph unicode="&#xe943;" glyph-name="blur_on" d="M256.002 405.335c-23.466 0-42.666-19.2-42.666-42.67 0-23.465 19.2-42.665 42.666-42.665s42.666 19.2 42.666 42.665c0 23.47-19.2 42.67-42.666 42.67zM256.002 234.665c-23.466 0-42.666-19.2-42.666-42.665s19.2-42.665 42.666-42.665c23.466 0 42.666 19.2 42.666 42.665s-19.2 42.665-42.666 42.665zM256.002 576c-23.466 0-42.666-19.2-42.666-42.666s19.2-42.667 42.666-42.667c23.466 0 42.666 19.2 42.666 42.667s-19.2 42.666-42.666 42.666zM128.002 554.666c-11.946 0-21.334-9.386-21.334-21.333s9.387-21.334 21.334-21.334c11.946 0 21.334 9.386 21.334 21.334s-9.387 21.333-21.334 21.333zM256.002 746.666c-23.466 0-42.666-19.2-42.666-42.666s19.2-42.666 42.666-42.666c23.466 0 42.666 19.2 42.666 42.666s-19.2 42.666-42.666 42.666zM896 512c11.95 0 21.335 9.386 21.335 21.334s-9.385 21.333-21.335 21.333c-11.945 0-21.33-9.386-21.33-21.333s9.385-21.334 21.33-21.334zM597.335 661.334c23.465 0 42.665 19.2 42.665 42.666s-19.2 42.666-42.665 42.666c-23.465 0-42.665-19.2-42.665-42.666s19.2-42.666 42.665-42.666zM597.335 810.666c11.945 0 21.335 9.387 21.335 21.334s-9.39 21.334-21.335 21.334c-11.945 0-21.335-9.387-21.335-21.334s9.39-21.334 21.335-21.334zM128.002 384c-11.946 0-21.334-9.385-21.334-21.335 0-11.945 9.387-21.33 21.334-21.33s21.334 9.385 21.334 21.33c0 11.95-9.387 21.335-21.334 21.335zM426.669 85.335c-11.946 0-21.333-9.39-21.333-21.335s9.386-21.335 21.333-21.335c11.947 0 21.334 9.39 21.334 21.335s-9.386 21.335-21.334 21.335zM426.669 810.666c11.947 0 21.334 9.387 21.334 21.334s-9.386 21.334-21.334 21.334c-11.946 0-21.333-9.387-21.333-21.334s9.386-21.334 21.333-21.334zM426.669 661.334c23.467 0 42.667 19.2 42.667 42.666s-19.2 42.666-42.667 42.666c-23.466 0-42.666-19.2-42.666-42.666s19.2-42.666 42.666-42.666zM426.669 426.665c-35.413 0-64-28.585-64-64 0-35.41 28.587-64 64-64s64 28.59 64 64c0 35.415-28.586 64-64 64zM768 405.335c-23.465 0-42.665-19.2-42.665-42.67 0-23.465 19.2-42.665 42.665-42.665 23.47 0 42.67 19.2 42.67 42.665 0 23.47-19.2 42.67-42.67 42.67zM768 234.665c-23.465 0-42.665-19.2-42.665-42.665s19.2-42.665 42.665-42.665c23.47 0 42.67 19.2 42.67 42.665s-19.2 42.665-42.67 42.665zM768 576c-23.465 0-42.665-19.2-42.665-42.666s19.2-42.667 42.665-42.667c23.47 0 42.67 19.2 42.67 42.667s-19.2 42.666-42.67 42.666zM768 746.666c-23.465 0-42.665-19.2-42.665-42.666s19.2-42.666 42.665-42.666c23.47 0 42.67 19.2 42.67 42.666s-19.2 42.666-42.67 42.666zM896 384c-11.945 0-21.33-9.385-21.33-21.335 0-11.945 9.385-21.33 21.33-21.33 11.95 0 21.335 9.385 21.335 21.33 0 11.95-9.385 21.335-21.335 21.335zM597.335 234.665c-23.465 0-42.665-19.2-42.665-42.665s19.2-42.665 42.665-42.665c23.465 0 42.665 19.2 42.665 42.665s-19.2 42.665-42.665 42.665zM597.335 85.335c-11.945 0-21.335-9.39-21.335-21.335s9.39-21.335 21.335-21.335c11.945 0 21.335 9.39 21.335 21.335s-9.39 21.335-21.335 21.335zM426.669 597.334c-35.413 0-64-28.587-64-64s28.587-64 64-64c35.414 0 64 28.586 64 64s-28.586 64-64 64zM426.669 234.665c-23.466 0-42.666-19.2-42.666-42.665s19.2-42.665 42.666-42.665c23.467 0 42.667 19.2 42.667 42.665s-19.2 42.665-42.667 42.665zM597.335 426.665c-35.415 0-64-28.585-64-64 0-35.41 28.585-64 64-64s64 28.59 64 64c0 35.415-28.585 64-64 64zM597.335 597.334c-35.415 0-64-28.587-64-64s28.585-64 64-64c35.415 0 64 28.586 64 64s-28.585 64-64 64z" />
<glyph unicode="&#xe944;" glyph-name="brightness_1" d="M511.998 789.334c188.162 0 341.332-153.174 341.332-341.334s-153.17-341.335-341.332-341.335c-188.16 0-341.334 153.175-341.334 341.335s153.174 341.334 341.334 341.334zM511.998 874.666c-235.52 0-426.666-191.146-426.666-426.666s191.146-426.665 426.666-426.665c235.522 0 426.667 191.145 426.667 426.665s-191.145 426.666-426.667 426.666z" />
<glyph unicode="&#xe945;" glyph-name="brightness_2" d="M426.664 789.334c188.161 0 341.336-153.174 341.336-341.334s-153.175-341.335-341.336-341.335c-14.506 0-29.013 0.855-43.093 2.99 81.493 92.16 128.426 212.48 128.426 338.345s-46.934 246.186-128.426 338.346c14.080 2.134 28.586 2.987 43.093 2.987zM426.664 874.666c-77.653 0-150.613-21.333-213.333-57.6 127.573-73.813 213.333-211.2 213.333-369.066s-85.76-295.255-213.333-369.065c62.72-36.27 135.68-57.6 213.333-57.6 235.521 0 426.665 191.145 426.665 426.665s-191.145 426.666-426.665 426.666z" />
<glyph unicode="&#xe946;" glyph-name="brightness_3" d="M541.865 750.506c108.8-56.746 183.47-171.093 183.47-302.506 0-131.415-74.67-245.76-183.47-302.505 62.295 85.33 98.135 190.29 98.135 302.505 0 112.214-35.84 217.174-98.135 302.506zM384 874.666c-44.8 0-87.466-6.826-128-19.626 173.226-54.186 298.665-215.894 298.665-407.040s-125.438-352.855-298.665-407.040c40.534-12.8 83.2-19.625 128-19.625 235.52 0 426.665 191.145 426.665 426.665s-191.145 426.666-426.665 426.666z" />
<glyph unicode="&#xe947;" glyph-name="brightness_4" d="M853.335 589.226v200.107h-200.11l-141.225 141.226-141.226-141.226h-200.106v-200.107l-141.227-141.226 141.227-141.225v-200.11h200.106l141.226-141.225 141.225 141.225h200.11v200.11l141.225 141.225-141.225 141.226zM768 342.185v-150.185h-150.185l-105.815-105.815-105.812 105.815h-150.187v150.185l-105.813 105.815 105.813 105.814v150.186h150.187l105.812 105.814 105.815-105.814h150.185v-150.186l105.815-105.814-105.815-105.815zM524.375 661.334c-31.575 0-61.868-7.254-88.748-19.627 73.386-33.706 124.588-107.946 124.588-193.706s-51.201-160-124.588-193.705c26.88-12.375 57.173-19.63 88.748-19.63 117.76 0 213.33 95.575 213.33 213.335s-95.57 213.334-213.33 213.334z" />
<glyph unicode="&#xe948;" glyph-name="brightness_5" d="M853.335 589.226v200.107h-200.11l-141.225 141.226-141.226-141.226h-200.106v-200.107l-141.227-141.226 141.227-141.225v-200.11h200.106l141.226-141.225 141.225 141.225h200.11v200.11l141.225 141.225-141.225 141.226zM768 342.185v-150.185h-150.185l-105.815-105.815-105.812 105.815h-150.187v150.185l-105.813 105.815 105.813 105.814v150.186h150.187l105.812 105.814 105.815-105.814h150.185v-150.186l105.815-105.814-105.815-105.815zM512 682.666c-129.279 0-234.666-105.386-234.666-234.666s105.386-234.665 234.666-234.665c129.28 0 234.665 105.385 234.665 234.665s-105.385 234.666-234.665 234.666zM512 298.665c-82.346 0-149.332 66.99-149.332 149.335s66.986 149.334 149.332 149.334c82.345 0 149.335-66.987 149.335-149.334 0-82.345-66.99-149.335-149.335-149.335z" />
<glyph unicode="&#xe949;" glyph-name="brightness_6" d="M853.335 589.226v200.107h-200.11l-141.225 141.226-141.226-141.226h-200.106v-200.107l-141.227-141.226 141.227-141.225v-200.11h200.106l141.226-141.225 141.225 141.225h200.11v200.11l141.225 141.225-141.225 141.226zM768 342.185v-150.185h-150.185l-105.815-105.815-105.812 105.815h-150.187v150.185l-105.813 105.815 105.813 105.814v150.186h150.187l105.812 105.814 105.815-105.814h150.185v-150.186l105.815-105.814-105.815-105.815zM512 682.666v-469.331c129.28 0 234.665 105.385 234.665 234.665s-105.385 234.666-234.665 234.666z" />
<glyph unicode="&#xe94a;" glyph-name="brightness_7" d="M853.335 589.226v200.107h-200.11l-141.225 141.226-141.226-141.226h-200.106v-200.107l-141.227-141.226 141.227-141.225v-200.11h200.106l141.226-141.225 141.225 141.225h200.11v200.11l141.225 141.225-141.225 141.226zM768 342.185v-150.185h-150.185l-105.815-105.815-105.812 105.815h-150.187v150.185l-105.813 105.815 105.813 105.814v150.186h150.187l105.812 105.814 105.815-105.814h150.185v-150.186l105.815-105.814-105.815-105.815zM512 682.666c-129.279 0-234.666-105.386-234.666-234.666s105.386-234.665 234.666-234.665c129.28 0 234.665 105.385 234.665 234.665s-105.385 234.666-234.665 234.666zM512 298.665c-82.346 0-149.332 66.99-149.332 149.335s66.986 149.334 149.332 149.334c82.345 0 149.335-66.987 149.335-149.334 0-82.345-66.99-149.335-149.335-149.335zM511.999 362.665c47.131 0 85.331 38.205 85.331 85.335s-38.2 85.334-85.331 85.334c-47.128 0-85.334-38.205-85.334-85.334s38.205-85.335 85.334-85.335z" />
<glyph unicode="&#xe94b;" glyph-name="broken_image" d="M810.665 832h-597.331c-46.934 0-85.334-38.4-85.334-85.334v-597.331c0-46.935 38.4-85.335 85.334-85.335h597.331c46.935 0 85.335 38.4 85.335 85.335v597.331c0 46.934-38.4 85.334-85.335 85.334zM810.665 149.335h-597.331v195.41l42.24-42.24 170.666 170.669 170.665-170.669 170.67 170.242 43.090-43.091v-280.32zM810.665 550.826l-43.090 43.094-170.67-171.095-170.665 170.669-170.666-170.669-42.24 42.669v281.173h597.331v-195.84z" />
<glyph unicode="&#xe94c;" glyph-name="browser_not_supported" d="M810.67 703.998v-447.998l83.2-83.2c1.28 6.4 2.13 12.8 2.13 19.2v511.998c0 46.934-38.4 85.334-85.33 85.334h-533.336l85.333-85.334h448.003zM137.386 818.344l-54.186-54.187 44.8-44.8v-527.362c0-46.93 38.4-85.33 85.334-85.33h527.362l87.89-87.895 54.19 54.185-745.389 745.389zM640 191.995h-426.666v442.029l442.026-442.029h-15.36z" />
<glyph unicode="&#xe94d;" glyph-name="brush" d="M298.664 277.335c23.467 0 42.667-19.2 42.667-42.67 0-46.93-38.4-85.33-85.334-85.33-7.254 0-14.080 0.85-21.334 2.13 13.227 23.47 21.334 51.63 21.334 83.2 0 23.47 19.2 42.67 42.666 42.67zM796.585 832c-11.095 0-21.76-4.266-30.295-12.374l-382.292-382.291 117.334-117.335 382.294 382.294c16.64 16.64 16.64 43.52 0 60.16l-57.175 57.173c-8.53 8.534-19.2 12.374-29.865 12.374zM298.664 362.665c-70.826 0-128-57.17-128-128 0-55.89-49.493-85.33-85.333-85.33 39.253-52.055 106.24-85.335 170.666-85.335 94.294 0 170.666 76.375 170.666 170.665 0 70.83-57.173 128-128 128z" />
<glyph unicode="&#xe94e;" glyph-name="burst_mode" d="M42.669 746.666h85.333v-597.331h-85.333v597.331zM213.336 746.666h85.333v-597.331h-85.333v597.331zM938.67 746.666h-512.002c-23.466 0-42.666-19.2-42.666-42.666v-512c0-23.465 19.2-42.665 42.666-42.665h512.002c23.465 0 42.665 19.2 42.665 42.665v512c0 23.466-19.2 42.666-42.665 42.666zM896 234.665h-426.664v426.669h426.664v-426.669zM743.68 421.545l-85.33-109.65-61.015 73.385-85.335-107.52h341.335l-109.655 143.785z" />
<glyph unicode="&#xe94f;" glyph-name="business_center" d="M853.33 661.334h-170.665v85.333l-85.335 85.334h-170.665l-85.333-85.334v-85.333h-170.667c-46.933 0-85.333-38.4-85.333-85.334v-213.335c0-32 17.066-58.88 42.666-73.81v-139.52c0-47.36 37.974-85.335 85.334-85.335h597.334c47.36 0 85.335 37.975 85.335 85.335v139.945c25.17 14.935 42.665 42.24 42.665 73.385v213.335c0 46.934-38.4 85.334-85.335 85.334zM426.664 746.666h170.665v-85.333h-170.665v85.333zM170.664 576h682.665v-213.335h-213.33v128.002h-256.002v-128.002h-213.334v213.335zM554.665 320h-85.334v85.335h85.334v-85.335zM810.665 149.335h-597.334v128h170.666v-42.67h256.002v42.67h170.665v-128z" />
<glyph unicode="&#xe950;" glyph-name="cake" d="M512 704c47.36 0 85.335 38.4 85.335 85.334 0 16.213-4.27 31.146-12.375 43.946l-72.96 126.72-72.96-126.72c-8.106-12.8-12.374-27.734-12.374-43.946 0-46.934 38.4-85.334 85.334-85.334zM768 576h-213.335v85.334h-85.331v-85.334h-213.334c-70.826 0-128-57.174-128-128v-384c0-23.465 19.2-42.665 42.666-42.665h682.669c23.465 0 42.665 19.2 42.665 42.665v384c0 70.826-57.175 128-128 128zM810.665 106.665h-597.331v128c38.4 0.43 75.093 15.79 102.4 43.095l46.506 45.655 45.654-45.655c55.893-55.895 153.171-55.465 208.642 0l46.080 45.655 45.65-45.655c27.31-27.305 64-42.665 102.4-43.095v-128zM810.665 298.665c-21.76 0.43-42.24 8.535-57.6 24.32l-90.88 90.88-91.305-90.88c-31.575-31.57-86.614-31.57-118.186 0l-90.88 90.88-91.307-90.88c-14.933-15.36-35.413-23.89-57.173-24.32v149.335c0 23.466 19.2 42.666 42.666 42.666h512c23.465 0 42.665-19.2 42.665-42.666v-149.335z" />
<glyph unicode="&#xe951;" glyph-name="camera" d="M608 863.574l-3.415 1.706-0.425-0.854c-29.87 6.4-60.59 10.24-92.162 10.24-235.52 0-426.666-191.146-426.666-426.666s191.146-426.665 426.666-426.665c235.522 0 426.667 191.145 426.667 426.665 0 202.666-141.225 372.054-330.665 415.574zM828.16 576h-340.909l115.629 200.534c102.4-28.16 185.6-103.254 225.28-200.534zM558.93 785.92l-169.812-295.254-116.054 200.534c61.44 60.586 145.92 98.134 238.934 98.134 15.787 0 31.572-1.28 46.932-3.414zM243.198 657.494l121.174-209.494 49.066-85.335h-231.68c-6.826 27.31-11.094 55.895-11.094 85.335 0 78.934 27.307 151.466 72.534 209.494zM195.838 320h340.482l-115.629-200.535c-102.4 28.59-185.174 103.255-224.854 200.535zM465.064 110.505l170.241 294.83 116.055-200.535c-61.87-60.585-146.35-98.135-239.362-98.135-16.214 0-31.574 1.71-46.934 3.84zM780.8 238.505l-170.67 294.829h231.68c7.255-27.307 11.52-55.894 11.52-85.334 0-78.935-27.305-151.465-72.53-209.495z" />
<glyph unicode="&#xe952;" glyph-name="camera_alt" d="M853.33 789.334h-135.25l-78.080 85.333h-256.002l-78.080-85.333h-135.254c-46.933 0-85.333-38.4-85.333-85.334v-512c0-46.935 38.4-85.335 85.333-85.335h682.665c46.935 0 85.335 38.4 85.335 85.335v512c0 46.934-38.4 85.334-85.335 85.334zM853.33 192h-682.665v512h172.8l78.080 85.334h180.905l78.080-85.334h172.8v-512zM511.998 661.334c-117.76 0-213.334-95.574-213.334-213.334s95.574-213.335 213.334-213.335c117.762 0 213.332 95.575 213.332 213.335s-95.57 213.334-213.332 213.334zM511.998 320c-70.4 0-128 57.6-128 128s57.6 128 128 128c70.402 0 128.002-57.6 128.002-128s-57.6-128-128.002-128z" />
<glyph unicode="&#xe953;" glyph-name="camera_front" d="M213.331 106.665v-85.33h213.333v-85.335l128.001 128-128.001 128v-85.335h-213.333zM597.33 106.665h213.335v-85.33h-213.335v85.33zM511.571 618.666c47.358 0 85.758 38.4 85.758 85.334s-38.4 85.334-85.758 85.334c-47.36 0-84.907-38.4-84.907-85.334s37.974-85.334 84.907-85.334zM725.33 960h-426.665c-46.933 0-85.333-38.4-85.333-85.334v-597.331c0-46.935 38.4-85.335 85.333-85.335h426.665c46.935 0 85.335 38.4 85.335 85.335v597.331c0 46.934-38.4 85.334-85.335 85.334zM725.33 277.335h-426.665v85.33h426.665v-85.33zM725.33 426.665c0 71.255-142.080 106.669-213.332 106.669-71.254 0-213.334-35.414-213.334-106.669v448.002h426.665v-448.002z" />
<glyph unicode="&#xe954;" glyph-name="camera_rear" d="M213.331 106.665v-85.33h213.333v-85.335l128.001 128-128.001 128v-85.335h-213.333zM597.33 106.665h213.335v-85.33h-213.335v85.33zM725.33 960h-426.665c-46.933 0-85.333-38.4-85.333-85.334v-597.331c0-46.935 38.4-85.335 85.333-85.335h426.665c46.935 0 85.335 38.4 85.335 85.335v597.331c0 46.934-38.4 85.334-85.335 85.334zM725.33 277.335h-426.665v597.331h426.665v-597.331zM511.998 661.334c46.932 0 85.332 38.4 84.907 85.333 0 46.934-38.4 85.334-85.334 85.334s-84.907-38.4-84.907-85.334c0-46.933 37.974-85.333 85.334-85.333z" />
<glyph unicode="&#xe955;" glyph-name="camera_roll" d="M597.33 746.666c0 46.934-38.4 85.334-85.332 85.334h-42.666v42.666c0 23.467-19.2 42.667-42.667 42.667h-170.666c-23.466 0-42.666-19.2-42.666-42.667v-42.666h-42.667c-46.933 0-85.333-38.4-85.333-85.334v-640.002c0-46.93 38.4-85.33 85.333-85.33h341.334c46.932 0 85.332 38.4 85.332 85.33h341.335v640.002h-341.335zM853.33 192h-341.332v-85.335h-341.334v640.002h128v85.334h85.334v-85.334h128v-85.333h341.332v-469.334zM383.998 320h85.334v-85.335h-85.334v85.335zM383.998 618.666h85.334v-85.333h-85.334v85.333zM554.665 320h85.335v-85.335h-85.335v85.335zM554.665 618.666h85.335v-85.333h-85.335v85.333zM725.33 320h85.335v-85.335h-85.335v85.335zM725.33 618.666h85.335v-85.333h-85.335v85.333z" />
<glyph unicode="&#xe956;" glyph-name="campaign" d="M768 490.666c0-28.586 0-56.746 0-85.331 51.2 0 117.76 0 170.665 0 0 28.585 0 56.745 0 85.331-52.905 0-119.465 0-170.665 0zM682.67 208.64c40.96-30.295 94.29-70.4 136.53-101.975 17.070 22.615 34.135 45.655 51.2 68.27-42.24 31.57-95.57 71.68-136.53 102.4-17.070-23.040-34.135-46.080-51.2-68.695zM870.4 721.066c-17.065 22.614-34.13 45.654-51.2 68.267-42.24-31.574-95.57-71.68-136.53-102.4 17.065-22.614 34.13-45.654 51.2-68.267 40.96 30.72 94.29 70.4 136.53 102.4zM170.664 576c-46.933 0-85.333-38.4-85.333-85.334v-85.331c0-46.935 38.4-85.335 85.333-85.335h42.667v-170.665h85.333v170.665h42.667l213.334-128v512l-213.334-128h-170.667zM385.278 503.040l84.054 50.346v-210.771l-84.054 50.345-20.48 12.375h-194.134v85.331h194.134l20.48 12.374zM661.33 448c0 56.746-24.745 107.946-64 142.934v-285.438c39.255 34.56 64 85.76 64 142.505z" />
<glyph unicode="&#xe957;" glyph-name="cancel" d="M511.998 874.666c-235.946 0-426.666-190.72-426.666-426.666 0-235.945 190.72-426.665 426.666-426.665s426.667 190.72 426.667 426.665c0 235.946-190.72 426.666-426.667 426.666zM511.998 106.665c-188.16 0-341.334 153.175-341.334 341.335s153.174 341.334 341.334 341.334c188.162 0 341.332-153.174 341.332-341.334s-153.17-341.335-341.332-341.335zM665.17 661.334l-153.172-153.174-153.174 153.174-60.16-60.16 153.174-153.174-153.174-153.175 60.16-60.16 153.174 153.175 153.172-153.175 60.16 60.16-153.17 153.175 153.17 153.174-60.16 60.16z" />
<glyph unicode="&#xe958;" glyph-name="carpenter" d="M841.815 352.855l-543.148 543.145-165.974-165.974 346.881-497.922c-33.28-33.28-33.28-87.465 0-120.745l60.161-60.16c33.28-33.28 87.465-33.28 120.745 0l180.905 180.905c33.71 33.28 33.71 87.47 0.43 120.75zM243.627 720.214l55.040 55.040 362.238-362.238-119.89-119.895-297.388 427.094zM600.32 111.785l-60.16 60.16 180.905 180.91 60.16-60.16-180.905-180.91z" />
<glyph unicode="&#xe959;" glyph-name="casino" d="M810.665 832h-597.331c-46.934 0-85.334-38.4-85.334-85.334v-597.331c0-46.935 38.4-85.335 85.334-85.335h597.331c46.935 0 85.335 38.4 85.335 85.335v597.331c0 46.934-38.4 85.334-85.335 85.334zM810.665 149.335h-597.331v597.331h597.331v-597.331zM320 192c35.346 0 64 28.652 64 64s-28.654 64-64 64c-35.346 0-64-28.652-64-64s28.654-64 64-64zM320 576c35.346 0 64 28.654 64 64s-28.654 64-64 64c-35.346 0-64-28.654-64-64s28.654-64 64-64zM512 384c35.348 0 64 28.652 64 64 0 35.346-28.652 64-64 64-35.346 0-64-28.654-64-64 0-35.348 28.654-64 64-64zM704 192c35.348 0 64 28.652 64 64s-28.652 64-64 64c-35.348 0-64-28.652-64-64s28.652-64 64-64zM704 576c35.348 0 64 28.654 64 64s-28.652 64-64 64c-35.348 0-64-28.654-64-64s28.652-64 64-64z" />
<glyph unicode="&#xe95a;" glyph-name="cast" d="M896 832h-768.001c-46.934 0-85.333-38.4-85.333-85.334v-128h85.333v128h768.001v-597.331h-298.67v-85.335h298.67c46.93 0 85.33 38.4 85.33 85.335v597.331c0 46.934-38.4 85.334-85.33 85.334zM42.666 192v-128h128c0 70.825-57.173 128-128 128zM42.666 362.665v-85.33c117.76 0 213.333-95.575 213.333-213.335h85.334c0 165.12-133.547 298.665-298.667 298.665zM42.666 533.334v-85.334c212.053 0 384-171.945 384-384h85.334c0 259.415-210.346 469.334-469.333 469.334z" />
<glyph unicode="&#xe95b;" glyph-name="cast_connected" d="M42.666 192v-128h128c0 70.825-57.173 128-128 128zM42.666 362.665v-85.33c117.76 0 213.333-95.575 213.333-213.335h85.334c0 165.12-133.547 298.665-298.667 298.665zM42.666 533.334v-85.334c212.053 0 384-171.945 384-384h85.334c0 259.415-210.346 469.334-469.333 469.334zM896 832h-768.001c-46.934 0-85.333-38.4-85.333-85.334v-128h85.333v128h768.001v-597.331h-298.67v-85.335h298.67c46.93 0 85.33 38.4 85.33 85.335v597.331c0 46.934-38.4 85.334-85.33 85.334zM213.332 661.334v-85.334h511.997v-256h-128v-85.335h213.335v426.669h-597.332z" />
<glyph unicode="&#xe95c;" glyph-name="cast_for_education" d="M896 832h-768.001c-46.934 0-85.333-38.4-85.333-85.334v-128h85.333v128h768.001v-597.331h-298.67v-85.335h298.67c46.93 0 85.33 38.4 85.33 85.335v597.331c0 46.934-38.4 85.334-85.33 85.334zM42.666 192v-128h128c0 70.825-57.173 128-128 128zM42.666 362.665v-85.33c117.76 0 213.333-95.575 213.333-213.335h85.334c0 165.12-133.547 298.665-298.667 298.665zM42.666 533.334v-85.334c212.053 0 384-171.945 384-384h85.334c0 259.415-210.346 469.334-469.333 469.334zM469.332 486.826v-85.331l149.332-81.495 149.335 81.495v85.331l-149.335-81.491-149.332 81.491zM618.665 704l-234.666-128 234.666-128 234.665 128-234.665 128z" />
<glyph unicode="&#xe95d;" glyph-name="category" d="M512 874.665l-234.666-384h469.331l-234.665 384zM512 710.825l82.345-134.826h-165.118l82.774 134.826zM746.665 405.33c-106.24 0-192-85.76-192-192s85.76-192 192-192c106.24 0 192 85.76 192 192s-85.76 192-192 192zM746.665 106.665c-58.88 0-106.665 47.785-106.665 106.665s47.785 106.67 106.665 106.67c58.88 0 106.67-47.79 106.67-106.67s-47.79-106.665-106.67-106.665zM128 42.665h341.334v341.335h-341.334v-341.335zM213.334 298.665h170.666v-170.665h-170.666v170.665z" />
<glyph unicode="&#xe95e;" glyph-name="center_focus_strong" d="M725.335 448c0 117.76-95.575 213.334-213.335 213.334s-213.334-95.574-213.334-213.334c0-117.76 95.574-213.335 213.334-213.335s213.335 95.575 213.335 213.335zM512 320c-70.4 0-128 57.6-128 128s57.6 128 128 128c70.4 0 128-57.6 128-128s-57.6-128-128-128zM213.334 320h-85.334v-170.665c0-46.935 38.4-85.335 85.334-85.335h170.666v85.335h-170.666v170.665zM213.334 746.666h170.666v85.334h-170.666c-46.934 0-85.334-38.4-85.334-85.334v-170.666h85.334v170.666zM810.665 832h-170.665v-85.334h170.665v-170.666h85.335v170.666c0 46.934-38.4 85.334-85.335 85.334zM810.665 149.335h-170.665v-85.335h170.665c46.935 0 85.335 38.4 85.335 85.335v170.665h-85.335v-170.665z" />
<glyph unicode="&#xe95f;" glyph-name="center_focus_weak" d="M213.334 320h-85.334v-170.665c0-46.935 38.4-85.335 85.334-85.335h170.666v85.335h-170.666v170.665zM213.334 746.666h170.666v85.334h-170.666c-46.934 0-85.334-38.4-85.334-85.334v-170.666h85.334v170.666zM512 618.666c-94.294 0-170.666-76.373-170.666-170.666 0-94.295 76.373-170.665 170.666-170.665 94.295 0 170.665 76.37 170.665 170.665s-76.37 170.666-170.665 170.666zM512 362.665c-46.934 0-85.334 38.4-85.334 85.335 0 46.934 38.4 85.334 85.334 85.334s85.335-38.4 85.335-85.334c0-46.935-38.4-85.335-85.335-85.335zM810.665 832h-170.665v-85.334h170.665v-170.666h85.335v170.666c0 46.934-38.4 85.334-85.335 85.334zM810.665 149.335h-170.665v-85.335h170.665c46.935 0 85.335 38.4 85.335 85.335v170.665h-85.335v-170.665z" />
<glyph unicode="&#xe960;" glyph-name="charging_station" d="M618.67 490.668l-127.999-255.997v170.665h-85.334l127.997 255.999v-170.667h85.335zM725.335 832.001h-426.664v-42.666h426.664v42.666zM725.335 106.67h-426.664v-42.67h426.664v42.67zM725.335 917.334c46.935 0 85.335-38.4 85.335-85.333v-768.001c0-46.93-38.4-85.33-85.335-85.33h-426.664c-46.933 0-85.333 38.4-85.333 85.33v768.001c0 46.934 38.4 85.333 85.333 85.333h426.664zM298.671 192h426.664v512.001h-426.664v-512.001z" />
<glyph unicode="&#xe961;" glyph-name="check" d="M384.001 270.080l-177.92 177.92-60.587-60.16 238.507-238.505 511.999 511.998-60.16 60.16-451.839-451.414z" />
<glyph unicode="&#xe962;" glyph-name="check_box" d="M810.665 832h-597.331c-46.934 0-85.334-38.4-85.334-85.334v-597.331c0-46.935 38.4-85.335 85.334-85.335h597.331c46.935 0 85.335 38.4 85.335 85.335v597.331c0 46.934-38.4 85.334-85.335 85.334zM810.665 149.335h-597.331v597.331h597.331v-597.331zM767.575 576l-60.16 60.586-281.175-281.171-110.080 109.651-60.586-60.162 170.666-170.24 341.335 341.335z" />
<glyph unicode="&#xe963;" glyph-name="check_box_outline_blank" d="M810.665 746.666v-597.331h-597.331v597.331h597.331zM810.665 832h-597.331c-46.934 0-85.334-38.4-85.334-85.334v-597.331c0-46.935 38.4-85.335 85.334-85.335h597.331c46.935 0 85.335 38.4 85.335 85.335v597.331c0 46.934-38.4 85.334-85.335 85.334z" />
<glyph unicode="&#xe964;" glyph-name="checkroom" d="M921.6 183.465l-366.935 275.202v38.827c70.4 20.906 119.465 92.586 103.68 172.8-11.095 55.893-55.465 102.4-111.36 115.2-97.279 22.186-184.319-51.627-184.319-145.494h85.333c0 35.414 28.587 64 64 64 35.411 0 64.002-28.586 64.002-64 0-35.84-29.44-64.854-65.282-64-23.040 0.426-41.386-19.2-41.386-42.24v-75.094l-366.934-275.202c-32.853-24.745-15.36-76.8 25.6-76.8h768.002c40.96 0 58.45 52.055 25.6 76.8zM255.998 192l256 192 256.002-192h-512.002z" />
<glyph unicode="&#xe965;" glyph-name="chevron_left" d="M657.49 643.84l-60.16 60.16-255.998-256 255.998-256 60.16 60.16-195.412 195.84 195.412 195.84z" />
<glyph unicode="&#xe966;" glyph-name="chevron_right" d="M426.666 704l-60.16-60.16 195.414-195.84-195.414-195.84 60.16-60.16 255.998 256-255.998 256z" />
<glyph unicode="&#xe967;" glyph-name="child_care" d="M618.665 458.668c29.455 0 53.335 23.878 53.335 53.334s-23.88 53.334-53.335 53.334c-29.455 0-53.335-23.878-53.335-53.334s23.88-53.334 53.335-53.334zM405.334 458.668c29.455 0 53.333 23.878 53.333 53.334s-23.878 53.334-53.333 53.334c-29.455 0-53.334-23.878-53.334-53.334s23.878-53.334 53.334-53.334zM978.775 476.16c-10.665 64.426-58.025 116.906-119.895 135.254-22.61 47.786-54.61 89.6-93.44 124.16-67.41 60.16-156.16 96.426-253.44 96.426-97.278 0-186.024-36.266-253.438-96.426-39.254-34.56-71.254-76.8-93.44-124.16-61.866-18.347-109.226-70.4-119.893-135.254-1.707-8.96-2.56-18.346-2.56-28.16 0-9.815 0.853-19.2 2.56-28.16 10.667-64.425 58.027-116.905 119.893-135.255 22.186-47.36 54.186-89.17 92.586-123.305 67.414-60.585 156.587-97.28 254.291-97.28 97.71 0 186.88 36.695 254.72 97.28 38.4 34.135 70.4 76.375 92.59 123.305 61.44 18.35 108.8 70.4 119.465 135.255 1.705 8.96 2.56 18.345 2.56 28.16s-0.855 19.2-2.56 28.16zM810.67 362.665c-4.27 0-8.11 0.855-12.375 1.28-8.535-28.585-20.905-55.040-36.695-79.36-53.33-81.49-145.065-135.25-249.6-135.25-104.531 0-196.264 53.76-249.598 135.25-15.786 24.32-28.16 50.775-36.694 79.36-4.266-0.425-8.106-1.28-12.373-1.28-46.934 0-85.334 38.4-85.334 85.335 0 46.934 38.4 85.334 85.334 85.334 4.266 0 8.106-0.854 12.373-1.28 8.534 28.586 20.907 55.040 36.694 79.36 53.334 81.493 145.066 135.253 249.598 135.253 104.535 0 196.27-53.76 249.6-135.253 15.79-24.32 28.16-50.774 36.695-79.36 4.265 0.426 8.105 1.28 12.375 1.28 46.93 0 85.33-38.4 85.33-85.334s-38.4-85.335-85.33-85.335zM512 234.665c85.76 0 159.575 52.48 192 128h-383.998c32.426-75.52 106.24-128 191.998-128z" />
<glyph unicode="&#xe968;" glyph-name="child_friendly" d="M554.665 874.665v-341.333h341.335c0 188.586-152.75 341.333-341.335 341.333zM640 618.665v156.16c72.53-25.6 130.13-83.2 156.16-156.16h-156.16zM274.771 490.665l-40.534 85.334h-148.906v-85.334h94.72c0 0 80.64-173.656 90.453-188.585-46.933-25.175-78.506-74.67-78.506-131.415 0-82.345 66.986-149.335 149.334-149.335 75.093 0 137.386 55.47 147.626 128h88.747c10.24-72.53 72.535-128 147.625-128 82.35 0 149.335 66.99 149.335 149.335 0 44.375-19.625 84.055-50.345 111.36 44.8 57.6 71.68 130.135 71.68 208.641h-621.229zM341.331 106.665c-35.414 0-64 28.585-64 64s28.586 64 64 64c35.413 0 64-28.585 64-64s-28.587-64-64-64zM725.33 106.665c-35.41 0-64 28.585-64 64s28.59 64 64 64c35.415 0 64-28.585 64-64s-28.585-64-64-64zM756.905 334.505l-12.375-15.785c-5.97 0.85-12.8 1.28-19.2 1.28-59.305 0-110.93-34.99-134.825-85.335h-114.347c-21.334 44.375-64 76.8-114.346 84.055l-18.774 28.585c-4.266 7.255-14.506 29.44-28.586 58.025h481.709c-8.96-25.17-22.19-49.065-39.255-70.825z" />
<glyph unicode="&#xe969;" glyph-name="clean_hands" d="M724.905 746.669l26.88-58.453 58.455-26.88-58.455-26.88-26.88-58.454-26.88 58.454-58.45 26.88 58.45 26.88 26.88 58.453zM853.335 362.67c46.93 0 85.33 38.4 85.33 85.332 0 46.934-85.33 170.666-85.33 170.666s-85.335-123.733-85.335-170.666c0-46.932 38.4-85.332 85.335-85.332zM469.333 699.736v89.6h85.332c24.32 0 46.935-7.254 66.135-19.2l61.015 61.013c-35.415 26.88-78.935 43.52-127.15 43.52-62.718 0-232.105 0-234.665 0v-85.333h64v-90.027c-75.946-15.786-136.533-71.68-160-144.64h92.16c22.614 37.974 63.147 64 110.507 64 69.12 0 125.438-55.040 127.574-123.733l85.76-32v27.733c0 103.254-73.385 189.44-170.667 209.067zM938.665 149.335v-42.665l-341.33-106.67-298.669 82.775v-61.44h-256v469.334h340.054l262.825-98.134c47.79-17.92 79.79-64 79.79-115.2h85.33c70.83 0 128-57.175 128-128zM213.333 106.67v298.665h-85.334v-298.665h85.334zM849.065 167.68c-6.825 14.080-21.76 23.895-38.4 23.895h-228.265c-23.040 0-45.655 3.84-67.415 11.095l-101.545 33.705 26.88 81.065 101.545-33.705c13.23-4.265 98.135-6.4 98.135-6.4 0 15.785-9.815 29.865-24.32 35.415l-248.321 92.585h-68.693v-233.815l297.389-82.345 253.010 78.505z" />
<glyph unicode="&#xe96a;" glyph-name="cleaning_services" d="M682.665 490.668h-42.665v341.334c0 46.934-38.4 85.333-85.335 85.333h-85.331c-46.934 0-85.334-38.4-85.334-85.333v-341.334h-42.666c-117.76 0-213.334-95.572-213.334-213.332v-298.665h768v298.665c0 117.76-95.575 213.332-213.335 213.332zM469.334 832.001h85.331v-341.334h-85.331v341.334zM810.665 64h-85.33v128c0 23.47-19.2 42.67-42.67 42.67-23.465 0-42.665-19.2-42.665-42.67v-128h-85.335v128c0 23.47-19.2 42.67-42.665 42.67-23.466 0-42.666-19.2-42.666-42.67v-128h-85.334v128c0 23.47-19.2 42.67-42.666 42.67s-42.667-19.2-42.667-42.67v-128h-85.333v213.335c0 70.4 57.6 128 128 128h341.331c70.4 0 128-57.6 128-128v-213.335z" />
<glyph unicode="&#xe96b;" glyph-name="clinic" d="M426.667 234.67h42.666v-42.67c0-11.315 4.495-22.164 12.497-30.167s18.854-12.498 30.17-12.498c11.315 0 22.17 4.495 30.172 12.498 7.997 8.003 12.493 18.852 12.493 30.167v42.67h42.67c11.315 0 22.164 4.495 30.167 12.498 8.003 7.997 12.498 18.852 12.498 30.167s-4.495 22.17-12.498 30.172c-8.003 7.997-18.852 12.493-30.167 12.493h-42.67v42.67c0 11.315-4.495 22.164-12.493 30.167-8.003 8.003-18.857 12.498-30.172 12.498s-22.168-4.495-30.17-12.498c-8.002-8.003-12.497-18.852-12.497-30.167v-42.67h-42.666c-11.316 0-22.169-4.495-30.17-12.493-8.002-8.003-12.497-18.857-12.497-30.172s4.495-22.17 12.497-30.167c8.002-8.003 18.854-12.498 30.17-12.498zM810.665 704.002h-85.33v42.666c0 33.948-13.486 66.505-37.494 90.51-24.003 24.005-56.561 37.49-90.506 37.49h-170.668c-33.948 0-66.505-13.486-90.51-37.49s-37.49-56.562-37.49-90.51v-42.666h-85.334c-33.948 0-66.505-13.486-90.51-37.49s-37.49-56.562-37.49-90.51v-426.667c0-33.946 13.486-66.504 37.49-90.511 24.005-24.003 56.562-37.489 90.51-37.489h597.331c33.951 0 66.509 13.486 90.511 37.489 24.003 24.008 37.489 56.566 37.489 90.511v426.667c0 33.948-13.486 66.505-37.489 90.51s-56.561 37.49-90.511 37.49zM384 746.669c0 11.316 4.495 22.169 12.497 30.17s18.854 12.497 30.17 12.497h170.668c11.315 0 22.164-4.495 30.167-12.497s12.498-18.854 12.498-30.17v-42.666h-256v42.666zM853.335 149.335c0-11.315-4.495-22.17-12.498-30.167-8.003-8.003-18.852-12.498-30.172-12.498h-597.331c-11.316 0-22.168 4.495-30.17 12.498-8.002 7.997-12.497 18.852-12.497 30.167v298.667h682.668v-298.667zM853.335 533.336h-682.668v42.666c0 11.316 4.495 22.169 12.497 30.17s18.854 12.496 30.17 12.496h597.331c11.32 0 22.17-4.495 30.172-12.496s12.498-18.854 12.498-30.17v-42.666z" />
<glyph unicode="&#xe96c;" glyph-name="close" d="M810.665 686.506l-60.16 60.16-238.507-238.506-238.506 238.506-60.16-60.16 238.506-238.506-238.506-238.505 60.16-60.16 238.506 238.505 238.507-238.505 60.16 60.16-238.505 238.505 238.505 238.506z" />
<glyph unicode="&#xe96d;" glyph-name="cloud" d="M512 704.001c111.785 0 208.215-79.36 229.975-189.014l12.8-64 65.28-4.692c66.56-4.265 118.61-60.16 118.61-126.295 0-70.4-57.6-128-128-128h-554.665c-94.294 0-170.666 76.375-170.666 170.67 0 87.464 65.28 160.424 151.893 169.384l45.654 4.693 21.334 40.534c40.533 78.080 119.893 126.72 207.786 126.72zM512 789.335c-123.306 0-230.4-69.974-283.734-172.374-128.426-13.654-228.266-122.454-228.266-254.291 0-141.23 114.774-256 256-256h554.665c117.76 0 213.335 95.57 213.335 213.33 0 112.64-87.465 203.948-198.4 211.628-29.015 147.2-158.295 257.707-313.6 257.707z" />
<glyph unicode="&#xe96e;" glyph-name="cloud_circle" d="M511.998 874.665c-235.52 0-426.666-191.146-426.666-426.665s191.146-426.67 426.666-426.67c235.522 0 426.667 191.15 426.667 426.67 0 235.519-191.145 426.665-426.667 426.665zM511.998 106.665c-188.16 0-341.334 153.175-341.334 341.335 0 188.159 153.174 341.332 341.334 341.332 188.162 0 341.332-153.174 341.332-341.332 0-188.16-153.17-341.335-341.332-341.335zM695.040 525.225c-17.070 85.76-92.16 150.187-183.042 150.187-72.106 0-134.4-40.96-165.546-100.694-75.094-7.68-133.12-71.254-133.12-148.054 0-82.345 66.986-149.335 149.333-149.335h323.416c68.69 0 124.585 55.895 124.585 124.59 0 65.705-51.2 119.039-115.625 123.305zM682.665 362.665h-320.001c-35.413 0-64 28.585-64 64s28.587 64.001 64 64.001h38.4l20.907 44.8c17.493 33.707 52.053 54.614 90.026 54.614 48.212 0 90.027-34.134 99.412-81.494l11.95-60.585h59.305c23.465 0 42.665-19.2 42.665-42.67 0-23.465-19.2-42.665-42.665-42.665z" />
<glyph unicode="&#xe96f;" glyph-name="cloud_done" d="M825.6 531.628c-29.015 147.2-158.295 257.707-313.6 257.707-123.306 0-230.4-69.974-283.734-172.374-128.426-13.654-228.266-122.454-228.266-254.291 0-141.23 114.774-256 256-256h554.665c117.76 0 213.335 95.57 213.335 213.33 0 112.64-87.465 203.948-198.4 211.628zM810.665 192h-554.665c-94.294 0-170.666 76.375-170.666 170.67 0 87.464 65.28 160.424 151.893 169.384l45.654 4.693 21.334 40.534c40.533 78.080 119.893 126.72 207.786 126.72 111.785 0 208.215-79.36 229.975-189.014l12.8-64 65.28-4.692c66.56-4.265 118.61-60.16 118.61-126.295 0-70.4-57.6-128-128-128zM426.666 354.99l-89.173 89.17-60.16-60.16 149.333-149.33 256.429 256.424-60.16 60.16-196.269-196.264z" />
<glyph unicode="&#xe970;" glyph-name="cloud_download" d="M825.6 531.628c-29.015 147.2-158.295 257.707-313.6 257.707-123.306 0-230.4-69.974-283.734-172.374-128.426-13.654-228.266-122.454-228.266-254.291 0-141.23 114.774-256 256-256h554.665c117.76 0 213.335 95.57 213.335 213.33 0 112.64-87.465 203.948-198.4 211.628zM810.665 192h-554.665c-94.294 0-170.666 76.375-170.666 170.67 0 87.464 65.28 160.424 151.893 169.384l45.654 4.693 21.334 40.534c40.533 78.080 119.893 126.72 207.786 126.72 111.785 0 208.215-79.36 229.975-189.014l12.8-64 65.28-4.692c66.56-4.265 118.61-60.16 118.61-126.295 0-70.4-57.6-128-128-128zM573.865 533.335h-123.731v-127.999h-108.8l170.666-170.665 170.665 170.665h-108.8v127.999z" />
<glyph unicode="&#xe971;" glyph-name="cloud_off" d="M1024 320c0 112.64-87.465 203.946-198.4 211.626-29.015 147.2-158.295 257.706-313.6 257.706-56.746 0-109.654-15.36-155.734-41.386l63.574-63.574c28.586 12.374 59.306 19.626 92.16 19.626 129.705 0 234.665-104.96 234.665-234.666v-21.333h64c70.83 0 128-57.175 128-128 0-42.24-20.48-78.935-51.625-102.4l60.16-60.16c46.505 39.255 76.8 96.855 76.8 162.56zM188.16 795.306l-60.16-60.16 118.186-118.187h-17.92c-128.426-13.654-228.266-122.453-228.266-254.295 0-141.225 114.774-256 256-256h500.48l85.335-85.33 60.16 60.16-713.815 713.811zM256 192c-94.294 0-170.666 76.375-170.666 170.665 0 94.295 76.373 170.668 170.666 170.668h73.814l341.331-341.333h-415.145z" />
<glyph unicode="&#xe972;" glyph-name="cloud_queue" d="M825.6 531.628c-29.015 147.2-158.295 257.707-313.6 257.707-123.306 0-230.4-69.974-283.734-172.374-128.426-13.654-228.266-122.454-228.266-254.291 0-141.23 114.774-256 256-256h554.665c117.76 0 213.335 95.57 213.335 213.33 0 112.64-87.465 203.948-198.4 211.628zM810.665 192h-554.665c-94.294 0-170.666 76.375-170.666 170.67 0 94.291 76.373 170.664 170.666 170.664h30.294c28.16 98.56 118.186 170.666 225.706 170.666 129.705 0 234.665-104.96 234.665-234.666v-21.334h64c70.83 0 128-57.171 128-128.001 0-70.825-57.17-128-128-128z" />
<glyph unicode="&#xe973;" glyph-name="cloud_upload" d="M825.6 531.628c-29.015 147.2-158.295 257.707-313.6 257.707-123.306 0-230.4-69.974-283.734-172.374-128.426-13.654-228.266-122.454-228.266-254.291 0-141.23 114.774-256 256-256h554.665c117.76 0 213.335 95.57 213.335 213.33 0 112.64-87.465 203.948-198.4 211.628zM810.665 192h-554.665c-94.294 0-170.666 76.375-170.666 170.67 0 87.464 65.28 160.424 151.893 169.384l45.654 4.693 21.334 40.534c40.533 78.080 119.893 126.72 207.786 126.72 111.785 0 208.215-79.36 229.975-189.014l12.8-64 65.28-4.692c66.56-4.265 118.61-60.16 118.61-126.295 0-70.4-57.6-128-128-128zM341.334 405.335h108.8v-128h123.731v128h108.8l-170.665 170.666-170.666-170.666z" />
<glyph unicode="&#xe974;" glyph-name="collections" d="M853.335 789.334v-511.998h-512.001v511.998h512.001zM853.335 874.667h-512.001c-46.934 0-85.334-38.4-85.334-85.334v-511.998c0-46.935 38.4-85.335 85.334-85.335h512.001c46.935 0 85.335 38.4 85.335 85.335v511.998c0 46.934-38.4 85.334-85.335 85.334zM490.668 462.080l72.108-96.425 105.815 132.265 142.080-177.92h-426.669l106.666 142.080zM85.335 704v-597.335c0-46.93 38.4-85.33 85.333-85.33h597.332v85.33h-597.332v597.335h-85.333z" />
<glyph unicode="&#xe975;" glyph-name="collections_bookmark" d="M170.668 704h-85.333v-597.335c0-46.93 38.4-85.33 85.333-85.33h597.332v85.33h-597.332v597.335zM853.335 874.667h-512.001c-46.934 0-85.334-38.4-85.334-85.334v-511.998c0-46.935 38.4-85.335 85.334-85.335h512.001c46.935 0 85.335 38.4 85.335 85.335v511.998c0 46.934-38.4 85.334-85.335 85.334zM725.335 789.334v-213.334l-42.665 32-42.67-32v213.334h85.335zM853.335 277.335h-512.001v511.998h213.336v-383.998l128 95.998 128-95.998v383.998h42.665v-511.998z" />
<glyph unicode="&#xe976;" glyph-name="color_lens" d="M512 21.335c-235.092 0-426.665 191.57-426.665 426.665 0 235.094 191.573 426.667 426.665 426.667 235.095 0 426.67-172.374 426.67-384 0-141.227-114.775-256.002-256-256.002h-75.52c-11.95 0-21.335-9.385-21.335-21.33 0-5.12 2.135-9.815 5.545-14.080 17.495-20.055 27.31-45.23 27.31-71.255 0-58.88-47.79-106.665-106.67-106.665zM512 789.334c-188.159 0-341.332-153.174-341.332-341.334s153.174-341.335 341.332-341.335c11.95 0 21.335 9.39 21.335 21.335 0 6.825-3.415 11.945-5.975 14.935-17.492 19.625-26.879 44.8-26.879 70.4 0 58.88 47.789 106.665 106.669 106.665h75.52c94.29 0 170.665 76.375 170.665 170.667 0 164.693-153.175 298.666-341.335 298.666zM277.335 405.335c35.346 0 64 28.652 64 63.998s-28.654 64-64 64c-35.346 0-64-28.654-64-64s28.654-63.998 64-63.998zM405.335 576c35.346 0 64 28.654 64 64s-28.654 64-64 64c-35.346 0-64-28.654-64-64s28.654-64 64-64zM618.665 576c35.348 0 64 28.654 64 64s-28.652 64-64 64c-35.343 0-64-28.654-64-64s28.657-64 64-64zM746.665 405.335c35.348 0 64 28.652 64 63.998s-28.652 64-64 64c-35.343 0-64-28.654-64-64s28.657-63.998 64-63.998z" />
<glyph unicode="&#xe977;" glyph-name="colorize" d="M753.495 729.174l39.25-39.254-114.77-114.774-39.255 39.254 114.775 114.774zM753.92 832c-11.095 0-21.76-4.266-30.295-12.374l-133.12-133.12-82.345 81.494-60.16-60.16 60.586-60.586-380.586-380.589v-202.665h202.666l380.589 380.585 60.585-60.585 60.16 60.16-81.92 81.92 133.12 133.12c17.065 17.066 17.065 43.946 0.425 60.586l-99.84 99.84c-8.53 8.107-19.2 12.374-29.865 12.374zM295.254 149.335l-81.92 81.92 343.891 343.891 81.92-81.92-343.891-343.891z" />
<glyph unicode="&#xe978;" glyph-name="compare" d="M426.666 832h-213.333c-46.934 0-85.334-38.4-85.334-85.334v-597.331c0-46.935 38.4-85.335 85.334-85.335h213.333v-85.335h85.334v938.668h-85.334v-85.333zM426.666 192h-213.333l213.333 256v-256zM810.665 832h-213.33v-85.334h213.33v-554.666l-213.33 256v-384h213.33c46.935 0 85.335 38.4 85.335 85.335v597.331c0 46.934-38.4 85.334-85.335 85.334z" />
<glyph unicode="&#xe979;" glyph-name="compass_calibration" d="M511.998 448c-117.76 0-213.334-95.575-213.334-213.335s95.574-213.33 213.334-213.33c117.762 0 213.332 95.57 213.332 213.33s-95.57 213.335-213.332 213.335zM511.998 106.665c-70.4 0-128 57.6-128 128s57.6 128 128 128c70.402 0 128.002-57.6 128.002-128s-57.6-128-128.002-128zM511.998 832c-166.4 0-317.44-67.84-426.666-177.066l213.333-213.334c54.614 54.614 130.134 88.746 213.334 88.746 83.202 0 158.722-33.706 213.332-88.322l213.335 213.335c-109.225 108.8-260.265 176.64-426.667 176.64zM718.505 555.946c-61.44 38.827-132.265 59.734-206.507 59.734-74.24 0-145.494-20.906-206.934-60.16l-94.293 94.72c87.466 62.72 192 96.426 301.226 96.426s213.332-33.706 300.802-96.426l-94.295-94.294z" />
<glyph unicode="&#xe97a;" glyph-name="computer" d="M853.335 192c46.93 0 84.905 38.4 84.905 85.33l0.425 426.668c0 46.934-38.4 85.334-85.33 85.334h-682.669c-46.933 0-85.333-38.4-85.333-85.334v-426.668c0-46.93 38.4-85.33 85.333-85.33h-170.666v-85.335h1024v85.335h-170.665zM170.666 703.998h682.669v-426.668h-682.669v426.668z" />
<glyph unicode="&#xe97b;" glyph-name="confirmation_number" d="M938.67 533.334v170.667c0 47.36-38.4 85.333-85.335 85.333h-682.664c-46.933 0-84.906-37.973-84.906-85.333v-170.667c46.934 0 84.906-38.4 84.906-85.333 0-46.936-37.973-85.336-85.333-85.336v-170.665c0-46.935 38.4-85.335 85.333-85.335h682.664c46.935 0 85.335 38.4 85.335 85.335v170.665c-46.935 0-85.335 38.4-85.335 85.336 0 46.933 38.4 85.333 85.335 85.333zM853.335 595.627c-50.77-29.44-85.33-84.906-85.33-147.626s34.56-118.185 85.33-147.625v-108.375h-682.664v108.375c50.774 29.44 85.334 84.905 85.334 147.625 0 63.146-34.134 118.186-84.906 147.626l-0.427 108.374h682.664v-108.374zM469.338 320h85.332v-85.335h-85.332v85.335zM469.338 490.667h85.332v-85.332h-85.332v85.332zM469.338 661.334h85.332v-85.333h-85.332v85.333z" />
<glyph unicode="&#xe97c;" glyph-name="connect_without_contact" d="M469.334 362.67h-85.334c0 212.052 171.945 383.998 384 383.998v-85.333c-165.12 0-298.666-133.547-298.666-298.665zM768 490.669v85.334c-117.76 0-213.335-95.574-213.335-213.332h85.335c0 70.825 57.175 127.998 128 127.998zM298.667 789.336c0 47.36-37.974 85.333-85.334 85.333s-85.333-37.973-85.333-85.333c0-47.36 37.973-85.334 85.333-85.334s85.334 37.974 85.334 85.334zM488.534 768.002h-85.334c-10.24-60.586-62.293-106.666-125.866-106.666h-128c-35.413 0-64-28.587-64-64v-106.667h256v96.427c79.36 25.173 138.666 95.146 147.2 180.906zM810.665 234.67c47.36 0 85.335 37.97 85.335 85.33s-37.975 85.335-85.335 85.335c-47.36 0-85.33-37.975-85.33-85.335s37.97-85.33 85.33-85.33zM874.665 192h-128c-63.57 0-115.625 46.080-125.865 106.67h-85.335c8.535-85.76 67.84-155.735 147.2-180.91v-96.425h256v106.665c0 35.415-28.585 64-64 64z" />
<glyph unicode="&#xe97d;" glyph-name="construction" d="M678.569 403.169l-90.506-90.506 255.836-255.841 90.511 90.511-255.841 255.836zM746.665 533.331c82.35 0 149.335 66.986 149.335 149.333 0 24.747-6.825 47.787-17.495 68.267l-115.2-115.2-63.57 63.573 115.2 115.2c-20.48 10.667-43.52 17.494-68.27 17.494-82.345 0-149.33-66.986-149.33-149.334 0-17.493 3.41-34.133 8.96-49.493l-78.935-78.934-75.946 75.946 30.293 30.294-60.16 60.16 90.454 90.454c-49.92 49.92-130.986 49.92-180.906 0l-151.040-151.040 60.16-60.16h-120.32l-30.294-30.294 151.040-151.038 30.294 30.291v120.746l60.16-60.16 30.293 30.294 75.947-75.947-316.16-316.159 90.453-90.455 485.549 485.122c15.36-5.547 32-8.96 49.49-8.96z" />
<glyph unicode="&#xe97e;" glyph-name="control_point" d="M554.665 661.334h-85.334v-170.666h-170.667v-85.332h170.667v-170.67h85.334v170.67h170.665v85.332h-170.665v170.666zM511.998 874.667c-235.094 0-426.666-191.574-426.666-426.667 0-235.095 191.573-426.665 426.666-426.665s426.667 191.57 426.667 426.665c0 235.094-191.575 426.667-426.667 426.667zM511.998 106.665c-188.16 0-341.334 153.175-341.334 341.335s153.174 341.334 341.334 341.334c188.162 0 341.332-153.174 341.332-341.334s-153.17-341.335-341.332-341.335z" />
<glyph unicode="&#xe97f;" glyph-name="control_point_duplicate" d="M682.665 618.666h-85.33v-128h-128.002v-85.331h128.002v-128h85.33v128h128v85.331h-128v128zM85.334 448c0 119.040 69.973 221.866 171.093 269.654v92.16c-148.906-52.907-256.426-194.987-256.426-361.814 0-166.825 107.52-308.905 256.426-361.815v92.16c-101.12 47.79-171.093 150.615-171.093 269.655zM640 832c-211.626 0-384-172.374-384-384s172.374-384 384-384c211.625 0 384 172.375 384 384s-172.375 384-384 384zM640 149.335c-164.694 0-298.666 133.97-298.666 298.665s133.973 298.666 298.666 298.666c164.695 0 298.665-133.973 298.665-298.666 0-164.695-133.97-298.665-298.665-298.665z" />
<glyph unicode="&#xe980;" glyph-name="coronavirus" d="M405.333 448.002c0-23.467-19.2-42.667-42.667-42.667s-42.666 19.2-42.666 42.667c0 23.466 19.2 42.666 42.666 42.666s42.667-19.2 42.667-42.666zM586.665 533.336c23.47 0 42.67 19.2 42.67 42.666s-19.2 42.666-42.67 42.666c-23.465 0-42.665-19.2-42.665-42.666s19.2-42.666 42.665-42.666zM437.333 533.336c23.466 0 42.666 19.2 42.666 42.666s-19.2 42.666-42.666 42.666c-23.467 0-42.667-19.2-42.667-42.666s19.2-42.666 42.667-42.666zM437.333 362.67c-23.467 0-42.667-19.2-42.667-42.67 0-23.465 19.2-42.665 42.667-42.665s42.666 19.2 42.666 42.665c0 23.47-19.2 42.67-42.666 42.67zM938.665 480.002v-64.002c0-17.49-14.505-32-32-32-17.49 0-32 14.51-32 32h-65.705c-6.4-58.45-29.44-112.21-64.855-155.73l46.51-46.51 0.425 0.43c12.375 12.37 32.855 12.37 45.225 0 12.375-12.375 12.375-32.855 0-45.23l-45.225-45.225c-12.375-12.375-32.855-12.375-45.225 0-12.375 12.375-12.375 32.425-0.43 44.8l-46.505 46.505c-43.52-34.985-96.855-58.025-155.305-64.425v-65.705h0.425c17.495 0 32-14.51 32-32 0-17.495-14.505-32-32-32h-64.001c-17.494 0-32 14.505-32 32 0 17.49 14.080 31.57 31.574 32v66.13c-58.454 6.4-111.787 29.44-154.88 64.43l-46.507-46.51 0.427-0.425c12.373-12.375 12.373-32.855 0-45.225-12.374-12.375-32.854-12.375-45.227 0l-45.653 45.65c-12.374 12.375-12.374 32.855 0 45.23 12.373 12.37 32.426 12.37 44.8 0.425l46.506 46.505c-34.986 43.52-58.026 96.43-64 154.88h-65.706c0-17.49-14.507-32-32-32s-32 14.51-32 32v64.002c0 17.494 14.506 32 32 32s32-14.506 32-32h65.706c6.4 58.454 29.44 111.36 64 154.88l-46.506 46.506c-12.374-11.946-32.427-11.946-44.8 0.427s-12.374 32.853 0 45.226l45.226 45.226c12.374 12.374 32.854 12.374 45.226 0s12.374-32.853 0-45.226l-0.426-0.426 46.506-46.507c43.52 34.987 96.427 58.027 154.88 64.427v66.133c-17.493 0.427-31.573 14.507-31.573 32 0.426 17.494 14.933 32 32.426 32h64.001c17.495 0 32-14.506 32-32s-14.505-32-32-32h-0.425v-65.706c58.45-5.974 111.785-29.44 155.305-64.426l46.505 46.506c-12.37 12.374-11.945 32.426 0.43 44.8 12.37 12.374 32.85 12.374 45.225 0l45.225-45.226c12.375-12.374 12.375-32.854 0-45.227-12.37-12.373-32.85-12.373-45.225 0l-0.425 0.427-46.51-46.080c34.99-43.52 58.455-96.854 64.855-155.734h65.705c0 17.494 14.51 32 32 32 17.495 0 32-14.506 32-32zM725.335 448.002c0 117.76-95.575 213.334-213.336 213.334s-213.334-95.574-213.334-213.334c0-117.762 95.574-213.332 213.334-213.332s213.336 95.57 213.336 213.332zM511.999 490.669c-23.466 0-42.666-19.2-42.666-42.666s19.2-42.667 42.666-42.667c23.465 0 42.665 19.2 42.665 42.667s-19.2 42.666-42.665 42.666zM661.335 490.669c-23.47 0-42.67-19.2-42.67-42.666s19.2-42.667 42.67-42.667c23.465 0 42.665 19.2 42.665 42.667s-19.2 42.666-42.665 42.666zM586.665 362.67c-23.465 0-42.665-19.2-42.665-42.67 0-23.465 19.2-42.665 42.665-42.665 23.47 0 42.67 19.2 42.67 42.665 0 23.47-19.2 42.67-42.67 42.67z" />
<glyph unicode="&#xe981;" glyph-name="corporate_fare" d="M511.998 661.334v170.666h-426.666v-768h853.334v597.334h-426.667zM426.664 149.335h-256v85.33h256v-85.33zM426.664 320h-256v85.335h256v-85.335zM426.664 490.666h-256v85.334h256v-85.334zM426.664 661.334h-256v85.333h256v-85.333zM853.33 149.335h-341.332v426.665h341.332v-426.665zM768 490.666h-170.67v-85.331h170.67v85.331zM768 320h-170.67v-85.335h170.67v85.335z" />
<glyph unicode="&#xe982;" glyph-name="countertops" d="M938.665 533.335h-170.665v128c0 70.826-57.175 128-128 128-70.83 0-128.002-57.174-128.002-128h85.332c0 23.466 19.2 42.666 42.67 42.666 23.465 0 42.665-19.2 42.665-42.666v-128h-341.334c46.933 0 85.333 38.4 85.333 85.333v170.667h-256v-170.667c0-46.933 38.4-85.333 85.334-85.333h-170.666v-85.334h85.333v-341.331h682.665v341.331h85.335v85.334zM255.998 704.001h85.334v-85.334h-85.334v85.334zM255.998 192v256.001h213.334v-256.001h-213.334zM768 192h-213.335v256.001h213.335v-256.001z" />
<glyph unicode="&#xe983;" glyph-name="create_new_folder" d="M853.33 704.001h-341.332l-85.334 85.334h-256c-47.36 0-84.906-37.974-84.906-85.334l-0.426-512.001c0-47.36 37.973-85.33 85.333-85.33h682.665c47.36 0 85.335 37.97 85.335 85.33v426.668c0 47.36-37.975 85.334-85.335 85.334zM853.33 192h-682.665v512.001h220.587l85.333-85.334h376.745v-426.668zM511.998 362.67h85.332v-85.335h85.335v85.335h85.335v85.331h-85.335v85.334h-85.335v-85.334h-85.332v-85.331z" />
<glyph unicode="&#xe984;" glyph-name="crop" d="M725.335 320h85.335v341.333c0 46.934-38.4 85.334-85.335 85.334h-341.333v-85.334h341.333v-341.333zM298.669 234.665v682.668h-85.333v-170.667h-170.667v-85.334h170.667v-426.668c0-46.93 38.4-85.33 85.333-85.33h426.666v-170.67h85.335v170.67h170.665v85.33h-682.666z" />
<glyph unicode="&#xe985;" glyph-name="crop_3_2" d="M810.665 789.333h-597.331c-46.934 0-85.334-38.4-85.334-85.333v-512c0-46.935 38.4-85.335 85.334-85.335h597.331c46.935 0 85.335 38.4 85.335 85.335v512c0 46.933-38.4 85.333-85.335 85.333zM810.665 192h-597.331v512h597.331v-512z" />
<glyph unicode="&#xe986;" glyph-name="crop_5_4" d="M810.665 746.667h-597.331c-46.934 0-85.334-38.4-85.334-85.334v-426.669c0-46.93 38.4-85.33 85.334-85.33h597.331c46.935 0 85.335 38.4 85.335 85.33v426.669c0 46.934-38.4 85.334-85.335 85.334zM810.665 234.665h-597.331v426.669h597.331v-426.669z" />
<glyph unicode="&#xe987;" glyph-name="crop_7_5" d="M810.665 661.333h-597.331c-46.934 0-85.334-38.4-85.334-85.333v-256c0-46.935 38.4-85.335 85.334-85.335h597.331c46.935 0 85.335 38.4 85.335 85.335v256c0 46.933-38.4 85.333-85.335 85.333zM810.665 320h-597.331v256h597.331v-256z" />
<glyph unicode="&#xe988;" glyph-name="crop_16_9" d="M810.665 704h-597.331c-46.934 0-85.334-38.4-85.334-85.334v-341.331c0-46.935 38.4-85.335 85.334-85.335h597.331c46.935 0 85.335 38.4 85.335 85.335v341.331c0 46.934-38.4 85.334-85.335 85.334zM810.665 277.335h-597.331v341.331h597.331v-341.331z" />
<glyph unicode="&#xe989;" glyph-name="crop_din" d="M810.665 832h-597.331c-46.934 0-85.334-38.4-85.334-85.334v-597.331c0-46.935 38.4-85.335 85.334-85.335h597.331c46.935 0 85.335 38.4 85.335 85.335v597.331c0 46.934-38.4 85.334-85.335 85.334zM810.665 149.335h-597.331v597.331h597.331v-597.331z" />
<glyph unicode="&#xe98a;" glyph-name="crop_free" d="M128 746.666v-170.666h85.334v170.666h170.666v85.334h-170.666c-46.934 0-85.334-38.4-85.334-85.334zM213.334 320h-85.334v-170.665c0-46.935 38.4-85.335 85.334-85.335h170.666v85.335h-170.666v170.665zM810.665 149.335h-170.665v-85.335h170.665c46.935 0 85.335 38.4 85.335 85.335v170.665h-85.335v-170.665zM810.665 832h-170.665v-85.334h170.665v-170.666h85.335v170.666c0 46.934-38.4 85.334-85.335 85.334z" />
<glyph unicode="&#xe98b;" glyph-name="crop_landscape" d="M810.665 746.666h-597.331c-46.934 0-85.334-38.4-85.334-85.334v-426.668c0-46.93 38.4-85.33 85.334-85.33h597.331c46.935 0 85.335 38.4 85.335 85.33v426.668c0 46.934-38.4 85.334-85.335 85.334zM810.665 234.665h-597.331v426.668h597.331v-426.668z" />
<glyph unicode="&#xe98c;" glyph-name="crop_original" d="M810.665 832h-597.331c-46.934 0-85.334-38.4-85.334-85.334v-597.331c0-46.935 38.4-85.335 85.334-85.335h597.331c46.935 0 85.335 38.4 85.335 85.335v597.331c0 46.934-38.4 85.334-85.335 85.334zM810.665 149.335h-597.331v597.331h597.331v-597.331zM595.625 435.625l-117.331-151.040-83.627 100.695-117.333-150.615h469.331l-151.040 200.96z" />
<glyph unicode="&#xe98d;" glyph-name="crop_portrait" d="M725.335 832h-426.668c-46.933 0-85.333-38.4-85.333-85.334v-597.331c0-46.935 38.4-85.335 85.333-85.335h426.668c46.935 0 85.335 38.4 85.335 85.335v597.331c0 46.934-38.4 85.334-85.335 85.334zM725.335 149.335h-426.668v597.331h426.668v-597.331z" />
<glyph unicode="&#xe98e;" glyph-name="crop_rotate" d="M318.72 43.095c-139.52 66.56-239.36 201.81-254.72 362.24h-64c21.76-262.83 241.494-469.335 509.866-469.335 9.814 0 18.774 0.855 28.158 1.28l-162.558 162.985-56.746-57.17zM514.135 960c-9.815 0-18.775-0.853-28.162-1.707l162.562-162.56 56.745 56.746c139.52-66.134 239.36-201.386 254.72-361.814h64c-21.76 262.827-241.495 469.334-509.865 469.334zM682.665 362.665h85.335v256.002c0 47.36-38.4 85.334-85.335 85.334h-255.998v-85.334h255.998v-256.002zM341.334 277.335v511.998h-85.334v-85.334h-85.334v-85.334h85.334v-341.331c0-46.935 37.974-85.335 85.334-85.335h341.331v-85.335h85.335v85.335h85.335v85.335h-512.002z" />
<glyph unicode="&#xe98f;" glyph-name="crop_square" d="M768 789.334h-512.001c-46.934 0-85.334-38.4-85.334-85.333v-512.001c0-46.935 38.4-85.335 85.334-85.335h512.001c46.93 0 85.33 38.4 85.33 85.335v512.001c0 46.933-38.4 85.333-85.33 85.333zM768 192h-512.001v512.001h512.001v-512.001z" />
<glyph unicode="&#xe990;" glyph-name="deck" d="M938.665 576.002l-426.665 298.666-426.666-298.666h384v-554.667h85.332v554.667h384zM511.999 770.562l156.161-109.226h-312.321l156.16 109.226zM176.639 448l-83.626-15.785 34.986-186.455v-224.425h85.334l0.854 170.665h84.48v-170.665h85.333v256h-174.933l-32.427 170.665zM814.935 277.335h-174.935v-256h85.335v170.665h84.48l0.85-170.665h85.335v224.425l34.985 186.455-83.625 15.785-32.425-170.665z" />
<glyph unicode="&#xe991;" glyph-name="dehaze" d="M85.331 277.335v-85.335h853.334v85.335h-853.334zM85.331 490.666v-85.331h853.334v85.331h-853.334zM85.331 704v-85.334h853.334v85.334h-853.334z" />
<glyph unicode="&#xe992;" glyph-name="departure_board" d="M234.669 192c35.346 0 64 28.652 64 64s-28.654 64-64 64c-35.346 0-64-28.652-64-64s28.654-64 64-64zM533.33 192c35.348 0 64 28.652 64 64s-28.652 64-64 64c-35.345 0-63.998-28.652-63.998-64s28.654-64 63.998-64zM682.67 917.334c-101.975 0-191.575-51.2-245.335-128.853-17.494 0.426-34.987 0.854-53.334 0.854-188.586 0-341.333-21.334-341.333-170.667v-426.668c0-37.545 16.64-71.25 42.667-94.72v-75.945c0-23.465 19.2-42.665 42.666-42.665h42.666c23.467 0 42.667 19.2 42.667 42.665v42.665h341.335v-42.665c0-23.465 19.2-42.665 42.665-42.665h42.665c23.47 0 42.67 19.2 42.67 42.665v75.945c26.025 23.47 42.665 57.175 42.665 94.72v131.415c144.64 20.905 256 144.639 256 295.252 0 165.12-133.545 298.667-298.665 298.667zM384.002 704.001h12.374c-3.84-13.654-6.827-28.16-8.96-42.24h-244.907c23.467 22.614 84.054 42.24 241.494 42.24zM128.002 576.428h259.414c6.826-47.36 24.32-90.88 50.346-128.426h-309.76v128.426zM640 192c0-15.785-8.96-26.45-14.505-31.145l-12.375-11.52h-458.238l-12.374 11.52c-5.546 4.695-14.506 15.36-14.506 31.145v170.67h401.493c33.28-20.055 70.4-33.71 110.505-39.255v-131.415zM682.67 405.335c-117.76 0-213.335 95.572-213.335 213.332s95.575 213.334 213.335 213.334c117.76 0 213.33-95.574 213.33-213.334s-95.57-213.332-213.33-213.332zM704 789.335h-64v-213.334l154.455-92.16 32 52.48-122.455 71.68v181.334z" />
<glyph unicode="&#xe993;" glyph-name="design_services" d="M894.72 649.814c16.64 16.64 16.64 43.52 0 60.16l-120.745 120.746c-16.64 16.64-43.52 16.64-60.16 0l-191.575-191.574-165.974 165.974c-33.28 33.28-87.466 33.28-120.746 0l-81.066-81.066c-33.28-33.28-33.28-87.467 0-120.747l165.973-165.971-192.426-192.43v-180.905h180.906l192.854 192.855 165.975-165.975c40.53-40.535 95.145-25.6 120.745 0l81.065 81.065c33.28 33.28 33.28 87.47 0 120.75l-165.97 165.971 191.145 191.147zM215.040 663.894l80.64 81.066 54.186-54.186-50.346-50.774 60.16-60.16 50.774 50.774 51.2-51.2-81.067-81.067-165.546 165.547zM694.185 346.455l-50.77-50.775 60.16-60.16 50.77 50.775 54.19-54.19-81.070-81.065-165.97 165.975 81.065 81.065 51.625-51.625zM273.494 149.335h-60.16v60.16l410.026 410.025 60.16-60.16-410.026-410.025zM683.52 680.106l60.16 60.16 60.16-60.16-60.16-60.16-60.16 60.16z" />
<glyph unicode="&#xe994;" glyph-name="desktop_mac" d="M896 874.669h-768.001c-46.934 0-85.333-38.4-85.333-85.333v-512.001c0-46.935 38.4-85.335 85.333-85.335h298.666l-85.333-128v-42.665h341.332v42.665l-85.335 128h298.67c46.93 0 85.33 38.4 85.33 85.335v512.001c0 46.933-38.4 85.333-85.33 85.333zM896 362.67h-768.001v426.665h768.001v-426.665z" />
<glyph unicode="&#xe995;" glyph-name="desktop_windows" d="M896 874.669h-768.001c-46.934 0-85.333-38.4-85.333-85.333v-512.001c0-46.935 38.4-85.335 85.333-85.335h298.666v-85.33h-85.333v-85.335h341.332v85.335h-85.335v85.33h298.67c46.93 0 85.33 38.4 85.33 85.335v512.001c0 46.933-38.4 85.333-85.33 85.333zM896 277.335h-768.001v512.001h768.001v-512.001z" />
<glyph unicode="&#xe996;" glyph-name="details" d="M511.998 832l-426.666-768h853.334l-426.667 768zM554.665 579.414l238.935-430.078h-238.935v430.078zM469.331 579.414v-430.078h-238.934l238.934 430.078z" />
<glyph unicode="&#xe997;" glyph-name="developer_board" d="M938.665 576v85.334h-85.335v85.333c0 46.934-38.4 85.334-85.33 85.334h-597.336c-46.933 0-85.333-38.4-85.333-85.334v-597.331c0-46.935 38.4-85.335 85.333-85.335h597.336c46.93 0 85.33 38.4 85.33 85.335v85.33h85.335v85.335h-85.335v85.335h85.335v85.331h-85.335v85.334h85.335zM768 149.335h-597.336v597.331h597.336v-597.331zM255.998 405.335h213.334v-170.67h-213.334v170.67zM511.998 661.334h170.667v-128h-170.667v128zM255.998 661.334h213.334v-213.334h-213.334v213.334zM511.998 490.666h170.667v-256.002h-170.667v256.002z" />
<glyph unicode="&#xe998;" glyph-name="device_hub" d="M725.335 277.335l-170.67 170.665v135.68c49.495 17.92 85.335 64.854 85.335 120.32 0 70.826-57.175 128-128 128s-128-57.174-128-128c0-55.466 35.84-102.4 85.334-120.32v-135.68l-170.667-170.665h-170.666v-213.335h213.334v130.135l170.666 179.2 170.665-179.2v-130.135h213.335v213.335h-170.665z" />
</font>
</defs>
</svg>
